solid ASCII
  facet normal 0.000000e+00 9.961947e-01 -8.715574e-02
    outer loop
      vertex   2.000000e+00 7.300000e+01 1.520000e+01
      vertex   -5.551115e-16 7.300000e+01 1.520000e+01
      vertex   2.000000e+00 7.301519e+01 1.537365e+01
    endloop
  endfacet
  facet normal 0.000000e+00 9.961947e-01 -8.715574e-02
    outer loop
      vertex   2.000000e+00 7.301519e+01 1.537365e+01
      vertex   -5.551115e-16 7.300000e+01 1.520000e+01
      vertex   -5.551115e-16 7.301519e+01 1.537365e+01
    endloop
  endfacet
  facet normal 0.000000e+00 9.659258e-01 -2.588190e-01
    outer loop
      vertex   2.000000e+00 7.301519e+01 1.537365e+01
      vertex   -5.551115e-16 7.301519e+01 1.537365e+01
      vertex   2.000000e+00 7.306031e+01 1.554202e+01
    endloop
  endfacet
  facet normal 0.000000e+00 9.659258e-01 -2.588190e-01
    outer loop
      vertex   2.000000e+00 7.306031e+01 1.554202e+01
      vertex   -5.551115e-16 7.301519e+01 1.537365e+01
      vertex   -5.551115e-16 7.306031e+01 1.554202e+01
    endloop
  endfacet
  facet normal 0.000000e+00 9.063078e-01 -4.226183e-01
    outer loop
      vertex   2.000000e+00 7.306031e+01 1.554202e+01
      vertex   -5.551115e-16 7.306031e+01 1.554202e+01
      vertex   2.000000e+00 7.313397e+01 1.570000e+01
    endloop
  endfacet
  facet normal 0.000000e+00 9.063078e-01 -4.226183e-01
    outer loop
      vertex   2.000000e+00 7.313397e+01 1.570000e+01
      vertex   -5.551115e-16 7.306031e+01 1.554202e+01
      vertex   -5.551115e-16 7.313397e+01 1.570000e+01
    endloop
  endfacet
  facet normal 0.000000e+00 8.191520e-01 -5.735764e-01
    outer loop
      vertex   2.000000e+00 7.313397e+01 1.570000e+01
      vertex   -5.551115e-16 7.313397e+01 1.570000e+01
      vertex   2.000000e+00 7.323396e+01 1.584279e+01
    endloop
  endfacet
  facet normal 0.000000e+00 8.191520e-01 -5.735764e-01
    outer loop
      vertex   2.000000e+00 7.323396e+01 1.584279e+01
      vertex   -5.551115e-16 7.313397e+01 1.570000e+01
      vertex   -5.551115e-16 7.323396e+01 1.584279e+01
    endloop
  endfacet
  facet normal 0.000000e+00 7.071068e-01 -7.071068e-01
    outer loop
      vertex   2.000000e+00 7.323396e+01 1.584279e+01
      vertex   -5.551115e-16 7.323396e+01 1.584279e+01
      vertex   2.000000e+00 7.335721e+01 1.596604e+01
    endloop
  endfacet
  facet normal 0.000000e+00 7.071068e-01 -7.071068e-01
    outer loop
      vertex   2.000000e+00 7.335721e+01 1.596604e+01
      vertex   -5.551115e-16 7.323396e+01 1.584279e+01
      vertex   -5.551115e-16 7.335721e+01 1.596604e+01
    endloop
  endfacet
  facet normal 0.000000e+00 5.735764e-01 -8.191520e-01
    outer loop
      vertex   2.000000e+00 7.335721e+01 1.596604e+01
      vertex   -5.551115e-16 7.335721e+01 1.596604e+01
      vertex   2.000000e+00 7.350000e+01 1.606603e+01
    endloop
  endfacet
  facet normal 0.000000e+00 5.735764e-01 -8.191520e-01
    outer loop
      vertex   2.000000e+00 7.350000e+01 1.606603e+01
      vertex   -5.551115e-16 7.335721e+01 1.596604e+01
      vertex   -5.551115e-16 7.350000e+01 1.606603e+01
    endloop
  endfacet
  facet normal 0.000000e+00 4.226183e-01 -9.063078e-01
    outer loop
      vertex   2.000000e+00 7.350000e+01 1.606603e+01
      vertex   -5.551115e-16 7.350000e+01 1.606603e+01
      vertex   2.000000e+00 7.365798e+01 1.613969e+01
    endloop
  endfacet
  facet normal 0.000000e+00 4.226183e-01 -9.063078e-01
    outer loop
      vertex   2.000000e+00 7.365798e+01 1.613969e+01
      vertex   -5.551115e-16 7.350000e+01 1.606603e+01
      vertex   -5.551115e-16 7.365798e+01 1.613969e+01
    endloop
  endfacet
  facet normal 0.000000e+00 2.588190e-01 -9.659258e-01
    outer loop
      vertex   2.000000e+00 7.365798e+01 1.613969e+01
      vertex   -5.551115e-16 7.365798e+01 1.613969e+01
      vertex   2.000000e+00 7.382635e+01 1.618481e+01
    endloop
  endfacet
  facet normal 0.000000e+00 2.588190e-01 -9.659258e-01
    outer loop
      vertex   2.000000e+00 7.382635e+01 1.618481e+01
      vertex   -5.551115e-16 7.365798e+01 1.613969e+01
      vertex   -5.551115e-16 7.382635e+01 1.618481e+01
    endloop
  endfacet
  facet normal 0.000000e+00 8.715574e-02 -9.961947e-01
    outer loop
      vertex   2.000000e+00 7.382635e+01 1.618481e+01
      vertex   -5.551115e-16 7.382635e+01 1.618481e+01
      vertex   2.000000e+00 7.400000e+01 1.620000e+01
    endloop
  endfacet
  facet normal 0.000000e+00 8.715574e-02 -9.961947e-01
    outer loop
      vertex   2.000000e+00 7.400000e+01 1.620000e+01
      vertex   -5.551115e-16 7.382635e+01 1.618481e+01
      vertex   -5.551115e-16 7.400000e+01 1.620000e+01
    endloop
  endfacet
  facet normal 0.000000e+00 -8.198570e-16 -1.000000e+00
    outer loop
      vertex   -5.551115e-16 7.400000e+01 1.620000e+01
      vertex   -5.551115e-16 8.700000e+01 1.620000e+01
      vertex   2.000000e+00 7.400000e+01 1.620000e+01
    endloop
  endfacet
  facet normal 0.000000e+00 -8.198570e-16 -1.000000e+00
    outer loop
      vertex   2.000000e+00 7.400000e+01 1.620000e+01
      vertex   -5.551115e-16 8.700000e+01 1.620000e+01
      vertex   2.000000e+00 8.700000e+01 1.620000e+01
    endloop
  endfacet
  facet normal -0.000000e+00 -8.715574e-02 -9.961947e-01
    outer loop
      vertex   2.000000e+00 8.700000e+01 1.620000e+01
      vertex   -5.551115e-16 8.700000e+01 1.620000e+01
      vertex   2.000000e+00 8.717365e+01 1.618481e+01
    endloop
  endfacet
  facet normal -0.000000e+00 -8.715574e-02 -9.961947e-01
    outer loop
      vertex   2.000000e+00 8.717365e+01 1.618481e+01
      vertex   -5.551115e-16 8.700000e+01 1.620000e+01
      vertex   -5.551115e-16 8.717365e+01 1.618481e+01
    endloop
  endfacet
  facet normal -0.000000e+00 -2.588190e-01 -9.659258e-01
    outer loop
      vertex   2.000000e+00 8.717365e+01 1.618481e+01
      vertex   -5.551115e-16 8.717365e+01 1.618481e+01
      vertex   2.000000e+00 8.734202e+01 1.613969e+01
    endloop
  endfacet
  facet normal -0.000000e+00 -2.588190e-01 -9.659258e-01
    outer loop
      vertex   2.000000e+00 8.734202e+01 1.613969e+01
      vertex   -5.551115e-16 8.717365e+01 1.618481e+01
      vertex   -5.551115e-16 8.734202e+01 1.613969e+01
    endloop
  endfacet
  facet normal -0.000000e+00 -4.226183e-01 -9.063078e-01
    outer loop
      vertex   2.000000e+00 8.734202e+01 1.613969e+01
      vertex   -5.551115e-16 8.734202e+01 1.613969e+01
      vertex   2.000000e+00 8.750000e+01 1.606603e+01
    endloop
  endfacet
  facet normal -0.000000e+00 -4.226183e-01 -9.063078e-01
    outer loop
      vertex   2.000000e+00 8.750000e+01 1.606603e+01
      vertex   -5.551115e-16 8.734202e+01 1.613969e+01
      vertex   -5.551115e-16 8.750000e+01 1.606603e+01
    endloop
  endfacet
  facet normal -0.000000e+00 -5.735764e-01 -8.191520e-01
    outer loop
      vertex   2.000000e+00 8.750000e+01 1.606603e+01
      vertex   -5.551115e-16 8.750000e+01 1.606603e+01
      vertex   2.000000e+00 8.764279e+01 1.596604e+01
    endloop
  endfacet
  facet normal -0.000000e+00 -5.735764e-01 -8.191520e-01
    outer loop
      vertex   2.000000e+00 8.764279e+01 1.596604e+01
      vertex   -5.551115e-16 8.750000e+01 1.606603e+01
      vertex   -5.551115e-16 8.764279e+01 1.596604e+01
    endloop
  endfacet
  facet normal -0.000000e+00 -7.071068e-01 -7.071068e-01
    outer loop
      vertex   2.000000e+00 8.764279e+01 1.596604e+01
      vertex   -5.551115e-16 8.764279e+01 1.596604e+01
      vertex   2.000000e+00 8.776604e+01 1.584279e+01
    endloop
  endfacet
  facet normal -0.000000e+00 -7.071068e-01 -7.071068e-01
    outer loop
      vertex   2.000000e+00 8.776604e+01 1.584279e+01
      vertex   -5.551115e-16 8.764279e+01 1.596604e+01
      vertex   -5.551115e-16 8.776604e+01 1.584279e+01
    endloop
  endfacet
  facet normal -0.000000e+00 -8.191520e-01 -5.735764e-01
    outer loop
      vertex   2.000000e+00 8.776604e+01 1.584279e+01
      vertex   -5.551115e-16 8.776604e+01 1.584279e+01
      vertex   2.000000e+00 8.786603e+01 1.570000e+01
    endloop
  endfacet
  facet normal -0.000000e+00 -8.191520e-01 -5.735764e-01
    outer loop
      vertex   2.000000e+00 8.786603e+01 1.570000e+01
      vertex   -5.551115e-16 8.776604e+01 1.584279e+01
      vertex   -5.551115e-16 8.786603e+01 1.570000e+01
    endloop
  endfacet
  facet normal -0.000000e+00 -9.063078e-01 -4.226183e-01
    outer loop
      vertex   2.000000e+00 8.786603e+01 1.570000e+01
      vertex   -5.551115e-16 8.786603e+01 1.570000e+01
      vertex   2.000000e+00 8.793969e+01 1.554202e+01
    endloop
  endfacet
  facet normal -0.000000e+00 -9.063078e-01 -4.226183e-01
    outer loop
      vertex   2.000000e+00 8.793969e+01 1.554202e+01
      vertex   -5.551115e-16 8.786603e+01 1.570000e+01
      vertex   -5.551115e-16 8.793969e+01 1.554202e+01
    endloop
  endfacet
  facet normal -0.000000e+00 -9.659258e-01 -2.588190e-01
    outer loop
      vertex   2.000000e+00 8.793969e+01 1.554202e+01
      vertex   -5.551115e-16 8.793969e+01 1.554202e+01
      vertex   2.000000e+00 8.798481e+01 1.537365e+01
    endloop
  endfacet
  facet normal -0.000000e+00 -9.659258e-01 -2.588190e-01
    outer loop
      vertex   2.000000e+00 8.798481e+01 1.537365e+01
      vertex   -5.551115e-16 8.793969e+01 1.554202e+01
      vertex   -5.551115e-16 8.798481e+01 1.537365e+01
    endloop
  endfacet
  facet normal -0.000000e+00 -9.961947e-01 -8.715574e-02
    outer loop
      vertex   2.000000e+00 8.798481e+01 1.537365e+01
      vertex   -5.551115e-16 8.798481e+01 1.537365e+01
      vertex   2.000000e+00 8.800000e+01 1.520000e+01
    endloop
  endfacet
  facet normal -0.000000e+00 -9.961947e-01 -8.715574e-02
    outer loop
      vertex   2.000000e+00 8.800000e+01 1.520000e+01
      vertex   -5.551115e-16 8.798481e+01 1.537365e+01
      vertex   -5.551115e-16 8.800000e+01 1.520000e+01
    endloop
  endfacet
  facet normal 0.000000e+00 -1.000000e+00 -1.136868e-14
    outer loop
      vertex   -5.551115e-16 8.800000e+01 1.520000e+01
      vertex   0.000000e+00 8.800000e+01 1.395000e+01
      vertex   2.000000e+00 8.800000e+01 1.520000e+01
    endloop
  endfacet
  facet normal 0.000000e+00 -1.000000e+00 -1.136868e-14
    outer loop
      vertex   2.000000e+00 8.800000e+01 1.520000e+01
      vertex   0.000000e+00 8.800000e+01 1.395000e+01
      vertex   2.000000e+00 8.800000e+01 1.395000e+01
    endloop
  endfacet
  facet normal 0.000000e+00 0.000000e+00 -1.000000e+00
    outer loop
      vertex   -5.551115e-16 6.850000e+01 1.395000e+01
      vertex   0.000000e+00 7.300000e+01 1.395000e+01
      vertex   2.000000e+00 6.850000e+01 1.395000e+01
    endloop
  endfacet
  facet normal 0.000000e+00 0.000000e+00 -1.000000e+00
    outer loop
      vertex   2.000000e+00 6.850000e+01 1.395000e+01
      vertex   0.000000e+00 7.300000e+01 1.395000e+01
      vertex   2.000000e+00 7.300000e+01 1.395000e+01
    endloop
  endfacet
  facet normal 0.000000e+00 -1.000000e+00 0.000000e+00
    outer loop
      vertex   -5.551115e-16 6.850000e+01 2.110000e+01
      vertex   -5.551115e-16 6.850000e+01 1.395000e+01
      vertex   2.000000e+00 6.850000e+01 2.110000e+01
    endloop
  endfacet
  facet normal 0.000000e+00 -1.000000e+00 -0.000000e+00
    outer loop
      vertex   2.000000e+00 6.850000e+01 2.110000e+01
      vertex   -5.551115e-16 6.850000e+01 1.395000e+01
      vertex   2.000000e+00 6.850000e+01 1.395000e+01
    endloop
  endfacet
  facet normal -0.000000e+00 0.000000e+00 1.000000e+00
    outer loop
      vertex   -5.551115e-16 9.250000e+01 2.110000e+01
      vertex   -5.551115e-16 6.850000e+01 2.110000e+01
      vertex   2.000000e+00 9.250000e+01 2.110000e+01
    endloop
  endfacet
  facet normal 0.000000e+00 0.000000e+00 1.000000e+00
    outer loop
      vertex   2.000000e+00 9.250000e+01 2.110000e+01
      vertex   -5.551115e-16 6.850000e+01 2.110000e+01
      vertex   2.000000e+00 6.850000e+01 2.110000e+01
    endloop
  endfacet
  facet normal 0.000000e+00 1.000000e+00 0.000000e+00
    outer loop
      vertex   -5.551115e-16 9.250000e+01 1.395000e+01
      vertex   -5.551115e-16 9.250000e+01 2.110000e+01
      vertex   2.000000e+00 9.250000e+01 1.395000e+01
    endloop
  endfacet
  facet normal 0.000000e+00 1.000000e+00 -0.000000e+00
    outer loop
      vertex   2.000000e+00 9.250000e+01 1.395000e+01
      vertex   -5.551115e-16 9.250000e+01 2.110000e+01
      vertex   2.000000e+00 9.250000e+01 2.110000e+01
    endloop
  endfacet
  facet normal 0.000000e+00 0.000000e+00 -1.000000e+00
    outer loop
      vertex   0.000000e+00 8.800000e+01 1.395000e+01
      vertex   -5.551115e-16 9.250000e+01 1.395000e+01
      vertex   2.000000e+00 8.800000e+01 1.395000e+01
    endloop
  endfacet
  facet normal 0.000000e+00 0.000000e+00 -1.000000e+00
    outer loop
      vertex   2.000000e+00 8.800000e+01 1.395000e+01
      vertex   -5.551115e-16 9.250000e+01 1.395000e+01
      vertex   2.000000e+00 9.250000e+01 1.395000e+01
    endloop
  endfacet
  facet normal 0.000000e+00 1.000000e+00 0.000000e+00
    outer loop
      vertex   2.000000e+00 7.300000e+01 1.520000e+01
      vertex   2.000000e+00 7.300000e+01 1.395000e+01
      vertex   -5.551115e-16 7.300000e+01 1.520000e+01
    endloop
  endfacet
  facet normal 0.000000e+00 1.000000e+00 0.000000e+00
    outer loop
      vertex   -5.551115e-16 7.300000e+01 1.520000e+01
      vertex   2.000000e+00 7.300000e+01 1.395000e+01
      vertex   0.000000e+00 7.300000e+01 1.395000e+01
    endloop
  endfacet
  facet normal 1.000000e+00 -9.868649e-17 3.552714e-16
    outer loop
      vertex   2.000000e+00 7.300000e+01 1.395000e+01
      vertex   2.000000e+00 7.300000e+01 1.520000e+01
      vertex   2.000000e+00 6.850000e+01 1.395000e+01
    endloop
  endfacet
  facet normal 1.000000e+00 0.000000e+00 0.000000e+00
    outer loop
      vertex   2.000000e+00 6.850000e+01 1.395000e+01
      vertex   2.000000e+00 7.300000e+01 1.520000e+01
      vertex   2.000000e+00 7.301519e+01 1.537365e+01
    endloop
  endfacet
  facet normal 1.000000e+00 0.000000e+00 0.000000e+00
    outer loop
      vertex   2.000000e+00 6.850000e+01 1.395000e+01
      vertex   2.000000e+00 7.301519e+01 1.537365e+01
      vertex   2.000000e+00 7.306031e+01 1.554202e+01
    endloop
  endfacet
  facet normal 1.000000e+00 0.000000e+00 -0.000000e+00
    outer loop
      vertex   2.000000e+00 7.306031e+01 1.554202e+01
      vertex   2.000000e+00 7.313397e+01 1.570000e+01
      vertex   2.000000e+00 6.850000e+01 1.395000e+01
    endloop
  endfacet
  facet normal 1.000000e+00 0.000000e+00 0.000000e+00
    outer loop
      vertex   2.000000e+00 6.850000e+01 1.395000e+01
      vertex   2.000000e+00 7.313397e+01 1.570000e+01
      vertex   2.000000e+00 7.323396e+01 1.584279e+01
    endloop
  endfacet
  facet normal 1.000000e+00 0.000000e+00 0.000000e+00
    outer loop
      vertex   2.000000e+00 6.850000e+01 1.395000e+01
      vertex   2.000000e+00 7.323396e+01 1.584279e+01
      vertex   2.000000e+00 7.335721e+01 1.596604e+01
    endloop
  endfacet
  facet normal 1.000000e+00 0.000000e+00 0.000000e+00
    outer loop
      vertex   2.000000e+00 6.850000e+01 1.395000e+01
      vertex   2.000000e+00 7.335721e+01 1.596604e+01
      vertex   2.000000e+00 6.850000e+01 2.110000e+01
    endloop
  endfacet
  facet normal 1.000000e+00 0.000000e+00 0.000000e+00
    outer loop
      vertex   2.000000e+00 6.850000e+01 2.110000e+01
      vertex   2.000000e+00 7.335721e+01 1.596604e+01
      vertex   2.000000e+00 7.350000e+01 1.606603e+01
    endloop
  endfacet
  facet normal 1.000000e+00 0.000000e+00 0.000000e+00
    outer loop
      vertex   2.000000e+00 6.850000e+01 2.110000e+01
      vertex   2.000000e+00 7.350000e+01 1.606603e+01
      vertex   2.000000e+00 7.365798e+01 1.613969e+01
    endloop
  endfacet
  facet normal 1.000000e+00 0.000000e+00 -0.000000e+00
    outer loop
      vertex   2.000000e+00 7.365798e+01 1.613969e+01
      vertex   2.000000e+00 7.382635e+01 1.618481e+01
      vertex   2.000000e+00 6.850000e+01 2.110000e+01
    endloop
  endfacet
  facet normal 1.000000e+00 0.000000e+00 0.000000e+00
    outer loop
      vertex   2.000000e+00 6.850000e+01 2.110000e+01
      vertex   2.000000e+00 7.382635e+01 1.618481e+01
      vertex   2.000000e+00 7.400000e+01 1.620000e+01
    endloop
  endfacet
  facet normal 1.000000e+00 0.000000e+00 0.000000e+00
    outer loop
      vertex   2.000000e+00 6.850000e+01 2.110000e+01
      vertex   2.000000e+00 7.400000e+01 1.620000e+01
      vertex   2.000000e+00 8.700000e+01 1.620000e+01
    endloop
  endfacet
  facet normal 1.000000e+00 -0.000000e+00 0.000000e+00
    outer loop
      vertex   2.000000e+00 6.850000e+01 2.110000e+01
      vertex   2.000000e+00 8.700000e+01 1.620000e+01
      vertex   2.000000e+00 9.250000e+01 2.110000e+01
    endloop
  endfacet
  facet normal 1.000000e+00 0.000000e+00 0.000000e+00
    outer loop
      vertex   2.000000e+00 9.250000e+01 2.110000e+01
      vertex   2.000000e+00 8.700000e+01 1.620000e+01
      vertex   2.000000e+00 8.717365e+01 1.618481e+01
    endloop
  endfacet
  facet normal 1.000000e+00 0.000000e+00 0.000000e+00
    outer loop
      vertex   2.000000e+00 9.250000e+01 2.110000e+01
      vertex   2.000000e+00 8.717365e+01 1.618481e+01
      vertex   2.000000e+00 8.734202e+01 1.613969e+01
    endloop
  endfacet
  facet normal 1.000000e+00 -0.000000e+00 0.000000e+00
    outer loop
      vertex   2.000000e+00 8.734202e+01 1.613969e+01
      vertex   2.000000e+00 8.750000e+01 1.606603e+01
      vertex   2.000000e+00 9.250000e+01 2.110000e+01
    endloop
  endfacet
  facet normal 1.000000e+00 0.000000e+00 0.000000e+00
    outer loop
      vertex   2.000000e+00 9.250000e+01 2.110000e+01
      vertex   2.000000e+00 8.750000e+01 1.606603e+01
      vertex   2.000000e+00 8.764279e+01 1.596604e+01
    endloop
  endfacet
  facet normal 1.000000e+00 0.000000e+00 0.000000e+00
    outer loop
      vertex   2.000000e+00 9.250000e+01 2.110000e+01
      vertex   2.000000e+00 8.764279e+01 1.596604e+01
      vertex   2.000000e+00 9.250000e+01 1.395000e+01
    endloop
  endfacet
  facet normal 1.000000e+00 0.000000e+00 0.000000e+00
    outer loop
      vertex   2.000000e+00 9.250000e+01 1.395000e+01
      vertex   2.000000e+00 8.764279e+01 1.596604e+01
      vertex   2.000000e+00 8.776604e+01 1.584279e+01
    endloop
  endfacet
  facet normal 1.000000e+00 0.000000e+00 0.000000e+00
    outer loop
      vertex   2.000000e+00 9.250000e+01 1.395000e+01
      vertex   2.000000e+00 8.776604e+01 1.584279e+01
      vertex   2.000000e+00 8.786603e+01 1.570000e+01
    endloop
  endfacet
  facet normal 1.000000e+00 0.000000e+00 0.000000e+00
    outer loop
      vertex   2.000000e+00 8.786603e+01 1.570000e+01
      vertex   2.000000e+00 8.793969e+01 1.554202e+01
      vertex   2.000000e+00 9.250000e+01 1.395000e+01
    endloop
  endfacet
  facet normal 1.000000e+00 0.000000e+00 0.000000e+00
    outer loop
      vertex   2.000000e+00 9.250000e+01 1.395000e+01
      vertex   2.000000e+00 8.793969e+01 1.554202e+01
      vertex   2.000000e+00 8.798481e+01 1.537365e+01
    endloop
  endfacet
  facet normal 1.000000e+00 0.000000e+00 0.000000e+00
    outer loop
      vertex   2.000000e+00 9.250000e+01 1.395000e+01
      vertex   2.000000e+00 8.798481e+01 1.537365e+01
      vertex   2.000000e+00 8.800000e+01 1.520000e+01
    endloop
  endfacet
  facet normal 1.000000e+00 9.868649e-17 3.552714e-16
    outer loop
      vertex   2.000000e+00 8.800000e+01 1.520000e+01
      vertex   2.000000e+00 8.800000e+01 1.395000e+01
      vertex   2.000000e+00 9.250000e+01 1.395000e+01
    endloop
  endfacet
  facet normal -1.000000e+00 1.233581e-16 -4.440892e-16
    outer loop
      vertex   0.000000e+00 7.300000e+01 1.395000e+01
      vertex   -5.551115e-16 6.850000e+01 1.395000e+01
      vertex   -5.551115e-16 7.300000e+01 1.520000e+01
    endloop
  endfacet
  facet normal -1.000000e+00 -0.000000e+00 0.000000e+00
    outer loop
      vertex   -5.551115e-16 7.300000e+01 1.520000e+01
      vertex   -5.551115e-16 6.850000e+01 1.395000e+01
      vertex   -5.551115e-16 7.301519e+01 1.537365e+01
    endloop
  endfacet
  facet normal -1.000000e+00 -0.000000e+00 0.000000e+00
    outer loop
      vertex   -5.551115e-16 7.301519e+01 1.537365e+01
      vertex   -5.551115e-16 6.850000e+01 1.395000e+01
      vertex   -5.551115e-16 7.306031e+01 1.554202e+01
    endloop
  endfacet
  facet normal -1.000000e+00 -0.000000e+00 0.000000e+00
    outer loop
      vertex   -5.551115e-16 7.306031e+01 1.554202e+01
      vertex   -5.551115e-16 6.850000e+01 1.395000e+01
      vertex   -5.551115e-16 7.313397e+01 1.570000e+01
    endloop
  endfacet
  facet normal -1.000000e+00 -0.000000e+00 0.000000e+00
    outer loop
      vertex   -5.551115e-16 7.313397e+01 1.570000e+01
      vertex   -5.551115e-16 6.850000e+01 1.395000e+01
      vertex   -5.551115e-16 7.323396e+01 1.584279e+01
    endloop
  endfacet
  facet normal -1.000000e+00 -0.000000e+00 0.000000e+00
    outer loop
      vertex   -5.551115e-16 7.323396e+01 1.584279e+01
      vertex   -5.551115e-16 6.850000e+01 1.395000e+01
      vertex   -5.551115e-16 7.335721e+01 1.596604e+01
    endloop
  endfacet
  facet normal -1.000000e+00 -0.000000e+00 0.000000e+00
    outer loop
      vertex   -5.551115e-16 7.335721e+01 1.596604e+01
      vertex   -5.551115e-16 6.850000e+01 1.395000e+01
      vertex   -5.551115e-16 6.850000e+01 2.110000e+01
    endloop
  endfacet
  facet normal -1.000000e+00 0.000000e+00 0.000000e+00
    outer loop
      vertex   -5.551115e-16 7.335721e+01 1.596604e+01
      vertex   -5.551115e-16 6.850000e+01 2.110000e+01
      vertex   -5.551115e-16 7.350000e+01 1.606603e+01
    endloop
  endfacet
  facet normal -1.000000e+00 0.000000e+00 0.000000e+00
    outer loop
      vertex   -5.551115e-16 7.350000e+01 1.606603e+01
      vertex   -5.551115e-16 6.850000e+01 2.110000e+01
      vertex   -5.551115e-16 7.365798e+01 1.613969e+01
    endloop
  endfacet
  facet normal -1.000000e+00 0.000000e+00 0.000000e+00
    outer loop
      vertex   -5.551115e-16 7.365798e+01 1.613969e+01
      vertex   -5.551115e-16 6.850000e+01 2.110000e+01
      vertex   -5.551115e-16 7.382635e+01 1.618481e+01
    endloop
  endfacet
  facet normal -1.000000e+00 0.000000e+00 0.000000e+00
    outer loop
      vertex   -5.551115e-16 7.382635e+01 1.618481e+01
      vertex   -5.551115e-16 6.850000e+01 2.110000e+01
      vertex   -5.551115e-16 7.400000e+01 1.620000e+01
    endloop
  endfacet
  facet normal -1.000000e+00 0.000000e+00 0.000000e+00
    outer loop
      vertex   -5.551115e-16 7.400000e+01 1.620000e+01
      vertex   -5.551115e-16 6.850000e+01 2.110000e+01
      vertex   -5.551115e-16 9.250000e+01 2.110000e+01
    endloop
  endfacet
  facet normal -1.000000e+00 0.000000e+00 0.000000e+00
    outer loop
      vertex   -5.551115e-16 7.400000e+01 1.620000e+01
      vertex   -5.551115e-16 9.250000e+01 2.110000e+01
      vertex   -5.551115e-16 8.700000e+01 1.620000e+01
    endloop
  endfacet
  facet normal -1.000000e+00 0.000000e+00 0.000000e+00
    outer loop
      vertex   -5.551115e-16 8.700000e+01 1.620000e+01
      vertex   -5.551115e-16 9.250000e+01 2.110000e+01
      vertex   -5.551115e-16 8.717365e+01 1.618481e+01
    endloop
  endfacet
  facet normal -1.000000e+00 0.000000e+00 0.000000e+00
    outer loop
      vertex   -5.551115e-16 8.717365e+01 1.618481e+01
      vertex   -5.551115e-16 9.250000e+01 2.110000e+01
      vertex   -5.551115e-16 8.734202e+01 1.613969e+01
    endloop
  endfacet
  facet normal -1.000000e+00 0.000000e+00 0.000000e+00
    outer loop
      vertex   -5.551115e-16 8.734202e+01 1.613969e+01
      vertex   -5.551115e-16 9.250000e+01 2.110000e+01
      vertex   -5.551115e-16 8.750000e+01 1.606603e+01
    endloop
  endfacet
  facet normal -1.000000e+00 0.000000e+00 0.000000e+00
    outer loop
      vertex   -5.551115e-16 8.750000e+01 1.606603e+01
      vertex   -5.551115e-16 9.250000e+01 2.110000e+01
      vertex   -5.551115e-16 8.764279e+01 1.596604e+01
    endloop
  endfacet
  facet normal -1.000000e+00 0.000000e+00 0.000000e+00
    outer loop
      vertex   -5.551115e-16 8.764279e+01 1.596604e+01
      vertex   -5.551115e-16 9.250000e+01 2.110000e+01
      vertex   -5.551115e-16 9.250000e+01 1.395000e+01
    endloop
  endfacet
  facet normal -1.000000e+00 0.000000e+00 0.000000e+00
    outer loop
      vertex   -5.551115e-16 8.764279e+01 1.596604e+01
      vertex   -5.551115e-16 9.250000e+01 1.395000e+01
      vertex   -5.551115e-16 8.776604e+01 1.584279e+01
    endloop
  endfacet
  facet normal -1.000000e+00 0.000000e+00 0.000000e+00
    outer loop
      vertex   -5.551115e-16 8.776604e+01 1.584279e+01
      vertex   -5.551115e-16 9.250000e+01 1.395000e+01
      vertex   -5.551115e-16 8.786603e+01 1.570000e+01
    endloop
  endfacet
  facet normal -1.000000e+00 0.000000e+00 0.000000e+00
    outer loop
      vertex   -5.551115e-16 8.786603e+01 1.570000e+01
      vertex   -5.551115e-16 9.250000e+01 1.395000e+01
      vertex   -5.551115e-16 8.793969e+01 1.554202e+01
    endloop
  endfacet
  facet normal -1.000000e+00 0.000000e+00 0.000000e+00
    outer loop
      vertex   -5.551115e-16 8.793969e+01 1.554202e+01
      vertex   -5.551115e-16 9.250000e+01 1.395000e+01
      vertex   -5.551115e-16 8.798481e+01 1.537365e+01
    endloop
  endfacet
  facet normal -1.000000e+00 0.000000e+00 0.000000e+00
    outer loop
      vertex   -5.551115e-16 8.798481e+01 1.537365e+01
      vertex   -5.551115e-16 9.250000e+01 1.395000e+01
      vertex   -5.551115e-16 8.800000e+01 1.520000e+01
    endloop
  endfacet
  facet normal -1.000000e+00 -1.233581e-16 -4.440892e-16
    outer loop
      vertex   -5.551115e-16 8.800000e+01 1.520000e+01
      vertex   -5.551115e-16 9.250000e+01 1.395000e+01
      vertex   0.000000e+00 8.800000e+01 1.395000e+01
    endloop
  endfacet
endsolid
