solid ASCII
  facet normal 0.000000e+00 9.937122e-01 -1.119645e-01
    outer loop
      vertex   2.000000e+00 7.300000e+01 1.570000e+01
      vertex   -5.551115e-16 7.300000e+01 1.570000e+01
      vertex   2.000000e+00 7.301254e+01 1.581126e+01
    endloop
  endfacet
  facet normal 0.000000e+00 9.937122e-01 -1.119645e-01
    outer loop
      vertex   2.000000e+00 7.301254e+01 1.581126e+01
      vertex   -5.551115e-16 7.300000e+01 1.570000e+01
      vertex   -5.551115e-16 7.301254e+01 1.581126e+01
    endloop
  endfacet
  facet normal 0.000000e+00 9.438833e-01 -3.302791e-01
    outer loop
      vertex   2.000000e+00 7.301254e+01 1.581126e+01
      vertex   -5.551115e-16 7.301254e+01 1.581126e+01
      vertex   2.000000e+00 7.304952e+01 1.591694e+01
    endloop
  endfacet
  facet normal 0.000000e+00 9.438833e-01 -3.302791e-01
    outer loop
      vertex   2.000000e+00 7.304952e+01 1.591694e+01
      vertex   -5.551115e-16 7.301254e+01 1.581126e+01
      vertex   -5.551115e-16 7.304952e+01 1.591694e+01
    endloop
  endfacet
  facet normal 0.000000e+00 8.467242e-01 -5.320321e-01
    outer loop
      vertex   2.000000e+00 7.304952e+01 1.591694e+01
      vertex   -5.551115e-16 7.304952e+01 1.591694e+01
      vertex   2.000000e+00 7.310908e+01 1.601174e+01
    endloop
  endfacet
  facet normal 0.000000e+00 8.467242e-01 -5.320321e-01
    outer loop
      vertex   2.000000e+00 7.310908e+01 1.601174e+01
      vertex   -5.551115e-16 7.304952e+01 1.591694e+01
      vertex   -5.551115e-16 7.310908e+01 1.601174e+01
    endloop
  endfacet
  facet normal 0.000000e+00 7.071068e-01 -7.071068e-01
    outer loop
      vertex   2.000000e+00 7.310908e+01 1.601174e+01
      vertex   -5.551115e-16 7.310908e+01 1.601174e+01
      vertex   2.000000e+00 7.318826e+01 1.609092e+01
    endloop
  endfacet
  facet normal 0.000000e+00 7.071068e-01 -7.071068e-01
    outer loop
      vertex   2.000000e+00 7.318826e+01 1.609092e+01
      vertex   -5.551115e-16 7.310908e+01 1.601174e+01
      vertex   -5.551115e-16 7.318826e+01 1.609092e+01
    endloop
  endfacet
  facet normal 0.000000e+00 5.320321e-01 -8.467242e-01
    outer loop
      vertex   2.000000e+00 7.318826e+01 1.609092e+01
      vertex   -5.551115e-16 7.318826e+01 1.609092e+01
      vertex   2.000000e+00 7.328306e+01 1.615048e+01
    endloop
  endfacet
  facet normal 0.000000e+00 5.320321e-01 -8.467242e-01
    outer loop
      vertex   2.000000e+00 7.328306e+01 1.615048e+01
      vertex   -5.551115e-16 7.318826e+01 1.609092e+01
      vertex   -5.551115e-16 7.328306e+01 1.615048e+01
    endloop
  endfacet
  facet normal 0.000000e+00 3.302791e-01 -9.438833e-01
    outer loop
      vertex   2.000000e+00 7.328306e+01 1.615048e+01
      vertex   -5.551115e-16 7.328306e+01 1.615048e+01
      vertex   2.000000e+00 7.338874e+01 1.618746e+01
    endloop
  endfacet
  facet normal 0.000000e+00 3.302791e-01 -9.438833e-01
    outer loop
      vertex   2.000000e+00 7.338874e+01 1.618746e+01
      vertex   -5.551115e-16 7.328306e+01 1.615048e+01
      vertex   -5.551115e-16 7.338874e+01 1.618746e+01
    endloop
  endfacet
  facet normal 0.000000e+00 1.119645e-01 -9.937122e-01
    outer loop
      vertex   2.000000e+00 7.338874e+01 1.618746e+01
      vertex   -5.551115e-16 7.338874e+01 1.618746e+01
      vertex   2.000000e+00 7.350000e+01 1.620000e+01
    endloop
  endfacet
  facet normal 0.000000e+00 1.119645e-01 -9.937122e-01
    outer loop
      vertex   2.000000e+00 7.350000e+01 1.620000e+01
      vertex   -5.551115e-16 7.338874e+01 1.618746e+01
      vertex   -5.551115e-16 7.350000e+01 1.620000e+01
    endloop
  endfacet
  facet normal 0.000000e+00 -7.612958e-16 -1.000000e+00
    outer loop
      vertex   -5.551115e-16 7.350000e+01 1.620000e+01
      vertex   -5.551115e-16 8.750000e+01 1.620000e+01
      vertex   2.000000e+00 7.350000e+01 1.620000e+01
    endloop
  endfacet
  facet normal 0.000000e+00 -7.612958e-16 -1.000000e+00
    outer loop
      vertex   2.000000e+00 7.350000e+01 1.620000e+01
      vertex   -5.551115e-16 8.750000e+01 1.620000e+01
      vertex   2.000000e+00 8.750000e+01 1.620000e+01
    endloop
  endfacet
  facet normal -0.000000e+00 -1.119645e-01 -9.937122e-01
    outer loop
      vertex   2.000000e+00 8.750000e+01 1.620000e+01
      vertex   -5.551115e-16 8.750000e+01 1.620000e+01
      vertex   2.000000e+00 8.761126e+01 1.618746e+01
    endloop
  endfacet
  facet normal -0.000000e+00 -1.119645e-01 -9.937122e-01
    outer loop
      vertex   2.000000e+00 8.761126e+01 1.618746e+01
      vertex   -5.551115e-16 8.750000e+01 1.620000e+01
      vertex   -5.551115e-16 8.761126e+01 1.618746e+01
    endloop
  endfacet
  facet normal -0.000000e+00 -3.302791e-01 -9.438833e-01
    outer loop
      vertex   2.000000e+00 8.761126e+01 1.618746e+01
      vertex   -5.551115e-16 8.761126e+01 1.618746e+01
      vertex   2.000000e+00 8.771694e+01 1.615048e+01
    endloop
  endfacet
  facet normal -0.000000e+00 -3.302791e-01 -9.438833e-01
    outer loop
      vertex   2.000000e+00 8.771694e+01 1.615048e+01
      vertex   -5.551115e-16 8.761126e+01 1.618746e+01
      vertex   -5.551115e-16 8.771694e+01 1.615048e+01
    endloop
  endfacet
  facet normal -0.000000e+00 -5.320321e-01 -8.467242e-01
    outer loop
      vertex   2.000000e+00 8.771694e+01 1.615048e+01
      vertex   -5.551115e-16 8.771694e+01 1.615048e+01
      vertex   2.000000e+00 8.781174e+01 1.609092e+01
    endloop
  endfacet
  facet normal -0.000000e+00 -5.320321e-01 -8.467242e-01
    outer loop
      vertex   2.000000e+00 8.781174e+01 1.609092e+01
      vertex   -5.551115e-16 8.771694e+01 1.615048e+01
      vertex   -5.551115e-16 8.781174e+01 1.609092e+01
    endloop
  endfacet
  facet normal -0.000000e+00 -7.071068e-01 -7.071068e-01
    outer loop
      vertex   2.000000e+00 8.781174e+01 1.609092e+01
      vertex   -5.551115e-16 8.781174e+01 1.609092e+01
      vertex   2.000000e+00 8.789092e+01 1.601174e+01
    endloop
  endfacet
  facet normal -0.000000e+00 -7.071068e-01 -7.071068e-01
    outer loop
      vertex   2.000000e+00 8.789092e+01 1.601174e+01
      vertex   -5.551115e-16 8.781174e+01 1.609092e+01
      vertex   -5.551115e-16 8.789092e+01 1.601174e+01
    endloop
  endfacet
  facet normal -0.000000e+00 -8.467242e-01 -5.320321e-01
    outer loop
      vertex   2.000000e+00 8.789092e+01 1.601174e+01
      vertex   -5.551115e-16 8.789092e+01 1.601174e+01
      vertex   2.000000e+00 8.795048e+01 1.591694e+01
    endloop
  endfacet
  facet normal -0.000000e+00 -8.467242e-01 -5.320321e-01
    outer loop
      vertex   2.000000e+00 8.795048e+01 1.591694e+01
      vertex   -5.551115e-16 8.789092e+01 1.601174e+01
      vertex   -5.551115e-16 8.795048e+01 1.591694e+01
    endloop
  endfacet
  facet normal -0.000000e+00 -9.438833e-01 -3.302791e-01
    outer loop
      vertex   2.000000e+00 8.795048e+01 1.591694e+01
      vertex   -5.551115e-16 8.795048e+01 1.591694e+01
      vertex   2.000000e+00 8.798746e+01 1.581126e+01
    endloop
  endfacet
  facet normal -0.000000e+00 -9.438833e-01 -3.302791e-01
    outer loop
      vertex   2.000000e+00 8.798746e+01 1.581126e+01
      vertex   -5.551115e-16 8.795048e+01 1.591694e+01
      vertex   -5.551115e-16 8.798746e+01 1.581126e+01
    endloop
  endfacet
  facet normal -0.000000e+00 -9.937122e-01 -1.119645e-01
    outer loop
      vertex   2.000000e+00 8.798746e+01 1.581126e+01
      vertex   -5.551115e-16 8.798746e+01 1.581126e+01
      vertex   2.000000e+00 8.800000e+01 1.570000e+01
    endloop
  endfacet
  facet normal -0.000000e+00 -9.937122e-01 -1.119645e-01
    outer loop
      vertex   2.000000e+00 8.800000e+01 1.570000e+01
      vertex   -5.551115e-16 8.798746e+01 1.581126e+01
      vertex   -5.551115e-16 8.800000e+01 1.570000e+01
    endloop
  endfacet
  facet normal 0.000000e+00 -1.000000e+00 -8.120488e-15
    outer loop
      vertex   -5.551115e-16 8.800000e+01 1.570000e+01
      vertex   0.000000e+00 8.800000e+01 1.395000e+01
      vertex   2.000000e+00 8.800000e+01 1.570000e+01
    endloop
  endfacet
  facet normal 0.000000e+00 -1.000000e+00 -8.120488e-15
    outer loop
      vertex   2.000000e+00 8.800000e+01 1.570000e+01
      vertex   0.000000e+00 8.800000e+01 1.395000e+01
      vertex   2.000000e+00 8.800000e+01 1.395000e+01
    endloop
  endfacet
  facet normal 0.000000e+00 0.000000e+00 -1.000000e+00
    outer loop
      vertex   -5.551115e-16 6.850000e+01 1.395000e+01
      vertex   0.000000e+00 7.300000e+01 1.395000e+01
      vertex   2.000000e+00 6.850000e+01 1.395000e+01
    endloop
  endfacet
  facet normal 0.000000e+00 0.000000e+00 -1.000000e+00
    outer loop
      vertex   2.000000e+00 6.850000e+01 1.395000e+01
      vertex   0.000000e+00 7.300000e+01 1.395000e+01
      vertex   2.000000e+00 7.300000e+01 1.395000e+01
    endloop
  endfacet
  facet normal 0.000000e+00 -1.000000e+00 0.000000e+00
    outer loop
      vertex   -5.551115e-16 6.850000e+01 2.110000e+01
      vertex   -5.551115e-16 6.850000e+01 1.395000e+01
      vertex   2.000000e+00 6.850000e+01 2.110000e+01
    endloop
  endfacet
  facet normal 0.000000e+00 -1.000000e+00 -0.000000e+00
    outer loop
      vertex   2.000000e+00 6.850000e+01 2.110000e+01
      vertex   -5.551115e-16 6.850000e+01 1.395000e+01
      vertex   2.000000e+00 6.850000e+01 1.395000e+01
    endloop
  endfacet
  facet normal -0.000000e+00 0.000000e+00 1.000000e+00
    outer loop
      vertex   -5.551115e-16 9.250000e+01 2.110000e+01
      vertex   -5.551115e-16 6.850000e+01 2.110000e+01
      vertex   2.000000e+00 9.250000e+01 2.110000e+01
    endloop
  endfacet
  facet normal 0.000000e+00 0.000000e+00 1.000000e+00
    outer loop
      vertex   2.000000e+00 9.250000e+01 2.110000e+01
      vertex   -5.551115e-16 6.850000e+01 2.110000e+01
      vertex   2.000000e+00 6.850000e+01 2.110000e+01
    endloop
  endfacet
  facet normal 0.000000e+00 1.000000e+00 0.000000e+00
    outer loop
      vertex   -5.551115e-16 9.250000e+01 1.395000e+01
      vertex   -5.551115e-16 9.250000e+01 2.110000e+01
      vertex   2.000000e+00 9.250000e+01 1.395000e+01
    endloop
  endfacet
  facet normal 0.000000e+00 1.000000e+00 -0.000000e+00
    outer loop
      vertex   2.000000e+00 9.250000e+01 1.395000e+01
      vertex   -5.551115e-16 9.250000e+01 2.110000e+01
      vertex   2.000000e+00 9.250000e+01 2.110000e+01
    endloop
  endfacet
  facet normal 0.000000e+00 0.000000e+00 -1.000000e+00
    outer loop
      vertex   0.000000e+00 8.800000e+01 1.395000e+01
      vertex   -5.551115e-16 9.250000e+01 1.395000e+01
      vertex   2.000000e+00 8.800000e+01 1.395000e+01
    endloop
  endfacet
  facet normal 0.000000e+00 0.000000e+00 -1.000000e+00
    outer loop
      vertex   2.000000e+00 8.800000e+01 1.395000e+01
      vertex   -5.551115e-16 9.250000e+01 1.395000e+01
      vertex   2.000000e+00 9.250000e+01 1.395000e+01
    endloop
  endfacet
  facet normal 0.000000e+00 1.000000e+00 0.000000e+00
    outer loop
      vertex   2.000000e+00 7.300000e+01 1.570000e+01
      vertex   2.000000e+00 7.300000e+01 1.395000e+01
      vertex   -5.551115e-16 7.300000e+01 1.570000e+01
    endloop
  endfacet
  facet normal 0.000000e+00 1.000000e+00 0.000000e+00
    outer loop
      vertex   -5.551115e-16 7.300000e+01 1.570000e+01
      vertex   2.000000e+00 7.300000e+01 1.395000e+01
      vertex   0.000000e+00 7.300000e+01 1.395000e+01
    endloop
  endfacet
  facet normal 1.000000e+00 -9.868649e-17 2.537653e-16
    outer loop
      vertex   2.000000e+00 7.300000e+01 1.395000e+01
      vertex   2.000000e+00 7.300000e+01 1.570000e+01
      vertex   2.000000e+00 6.850000e+01 1.395000e+01
    endloop
  endfacet
  facet normal 1.000000e+00 0.000000e+00 0.000000e+00
    outer loop
      vertex   2.000000e+00 6.850000e+01 1.395000e+01
      vertex   2.000000e+00 7.300000e+01 1.570000e+01
      vertex   2.000000e+00 7.301254e+01 1.581126e+01
    endloop
  endfacet
  facet normal 1.000000e+00 0.000000e+00 0.000000e+00
    outer loop
      vertex   2.000000e+00 6.850000e+01 1.395000e+01
      vertex   2.000000e+00 7.301254e+01 1.581126e+01
      vertex   2.000000e+00 7.304952e+01 1.591694e+01
    endloop
  endfacet
  facet normal 1.000000e+00 0.000000e+00 -0.000000e+00
    outer loop
      vertex   2.000000e+00 7.304952e+01 1.591694e+01
      vertex   2.000000e+00 7.310908e+01 1.601174e+01
      vertex   2.000000e+00 6.850000e+01 1.395000e+01
    endloop
  endfacet
  facet normal 1.000000e+00 0.000000e+00 0.000000e+00
    outer loop
      vertex   2.000000e+00 6.850000e+01 1.395000e+01
      vertex   2.000000e+00 7.310908e+01 1.601174e+01
      vertex   2.000000e+00 7.318826e+01 1.609092e+01
    endloop
  endfacet
  facet normal 1.000000e+00 0.000000e+00 0.000000e+00
    outer loop
      vertex   2.000000e+00 6.850000e+01 1.395000e+01
      vertex   2.000000e+00 7.318826e+01 1.609092e+01
      vertex   2.000000e+00 6.850000e+01 2.110000e+01
    endloop
  endfacet
  facet normal 1.000000e+00 0.000000e+00 0.000000e+00
    outer loop
      vertex   2.000000e+00 6.850000e+01 2.110000e+01
      vertex   2.000000e+00 7.318826e+01 1.609092e+01
      vertex   2.000000e+00 7.328306e+01 1.615048e+01
    endloop
  endfacet
  facet normal 1.000000e+00 0.000000e+00 0.000000e+00
    outer loop
      vertex   2.000000e+00 6.850000e+01 2.110000e+01
      vertex   2.000000e+00 7.328306e+01 1.615048e+01
      vertex   2.000000e+00 7.338874e+01 1.618746e+01
    endloop
  endfacet
  facet normal 1.000000e+00 0.000000e+00 -0.000000e+00
    outer loop
      vertex   2.000000e+00 7.338874e+01 1.618746e+01
      vertex   2.000000e+00 7.350000e+01 1.620000e+01
      vertex   2.000000e+00 6.850000e+01 2.110000e+01
    endloop
  endfacet
  facet normal 1.000000e+00 0.000000e+00 0.000000e+00
    outer loop
      vertex   2.000000e+00 6.850000e+01 2.110000e+01
      vertex   2.000000e+00 7.350000e+01 1.620000e+01
      vertex   2.000000e+00 8.750000e+01 1.620000e+01
    endloop
  endfacet
  facet normal 1.000000e+00 -0.000000e+00 0.000000e+00
    outer loop
      vertex   2.000000e+00 6.850000e+01 2.110000e+01
      vertex   2.000000e+00 8.750000e+01 1.620000e+01
      vertex   2.000000e+00 9.250000e+01 2.110000e+01
    endloop
  endfacet
  facet normal 1.000000e+00 0.000000e+00 0.000000e+00
    outer loop
      vertex   2.000000e+00 9.250000e+01 2.110000e+01
      vertex   2.000000e+00 8.750000e+01 1.620000e+01
      vertex   2.000000e+00 8.761126e+01 1.618746e+01
    endloop
  endfacet
  facet normal 1.000000e+00 0.000000e+00 0.000000e+00
    outer loop
      vertex   2.000000e+00 9.250000e+01 2.110000e+01
      vertex   2.000000e+00 8.761126e+01 1.618746e+01
      vertex   2.000000e+00 8.771694e+01 1.615048e+01
    endloop
  endfacet
  facet normal 1.000000e+00 -0.000000e+00 0.000000e+00
    outer loop
      vertex   2.000000e+00 8.771694e+01 1.615048e+01
      vertex   2.000000e+00 8.781174e+01 1.609092e+01
      vertex   2.000000e+00 9.250000e+01 2.110000e+01
    endloop
  endfacet
  facet normal 1.000000e+00 0.000000e+00 0.000000e+00
    outer loop
      vertex   2.000000e+00 9.250000e+01 2.110000e+01
      vertex   2.000000e+00 8.781174e+01 1.609092e+01
      vertex   2.000000e+00 9.250000e+01 1.395000e+01
    endloop
  endfacet
  facet normal 1.000000e+00 0.000000e+00 0.000000e+00
    outer loop
      vertex   2.000000e+00 9.250000e+01 1.395000e+01
      vertex   2.000000e+00 8.781174e+01 1.609092e+01
      vertex   2.000000e+00 8.789092e+01 1.601174e+01
    endloop
  endfacet
  facet normal 1.000000e+00 0.000000e+00 0.000000e+00
    outer loop
      vertex   2.000000e+00 9.250000e+01 1.395000e+01
      vertex   2.000000e+00 8.789092e+01 1.601174e+01
      vertex   2.000000e+00 8.795048e+01 1.591694e+01
    endloop
  endfacet
  facet normal 1.000000e+00 0.000000e+00 0.000000e+00
    outer loop
      vertex   2.000000e+00 8.795048e+01 1.591694e+01
      vertex   2.000000e+00 8.798746e+01 1.581126e+01
      vertex   2.000000e+00 9.250000e+01 1.395000e+01
    endloop
  endfacet
  facet normal 1.000000e+00 0.000000e+00 0.000000e+00
    outer loop
      vertex   2.000000e+00 9.250000e+01 1.395000e+01
      vertex   2.000000e+00 8.798746e+01 1.581126e+01
      vertex   2.000000e+00 8.800000e+01 1.570000e+01
    endloop
  endfacet
  facet normal 1.000000e+00 9.868649e-17 2.537653e-16
    outer loop
      vertex   2.000000e+00 9.250000e+01 1.395000e+01
      vertex   2.000000e+00 8.800000e+01 1.570000e+01
      vertex   2.000000e+00 8.800000e+01 1.395000e+01
    endloop
  endfacet
  facet normal -1.000000e+00 1.233581e-16 -3.172066e-16
    outer loop
      vertex   0.000000e+00 7.300000e+01 1.395000e+01
      vertex   -5.551115e-16 6.850000e+01 1.395000e+01
      vertex   -5.551115e-16 7.300000e+01 1.570000e+01
    endloop
  endfacet
  facet normal -1.000000e+00 -0.000000e+00 0.000000e+00
    outer loop
      vertex   -5.551115e-16 7.300000e+01 1.570000e+01
      vertex   -5.551115e-16 6.850000e+01 1.395000e+01
      vertex   -5.551115e-16 7.301254e+01 1.581126e+01
    endloop
  endfacet
  facet normal -1.000000e+00 -0.000000e+00 0.000000e+00
    outer loop
      vertex   -5.551115e-16 7.301254e+01 1.581126e+01
      vertex   -5.551115e-16 6.850000e+01 1.395000e+01
      vertex   -5.551115e-16 7.304952e+01 1.591694e+01
    endloop
  endfacet
  facet normal -1.000000e+00 -0.000000e+00 0.000000e+00
    outer loop
      vertex   -5.551115e-16 7.304952e+01 1.591694e+01
      vertex   -5.551115e-16 6.850000e+01 1.395000e+01
      vertex   -5.551115e-16 7.310908e+01 1.601174e+01
    endloop
  endfacet
  facet normal -1.000000e+00 -0.000000e+00 0.000000e+00
    outer loop
      vertex   -5.551115e-16 7.310908e+01 1.601174e+01
      vertex   -5.551115e-16 6.850000e+01 1.395000e+01
      vertex   -5.551115e-16 7.318826e+01 1.609092e+01
    endloop
  endfacet
  facet normal -1.000000e+00 -0.000000e+00 0.000000e+00
    outer loop
      vertex   -5.551115e-16 7.318826e+01 1.609092e+01
      vertex   -5.551115e-16 6.850000e+01 1.395000e+01
      vertex   -5.551115e-16 6.850000e+01 2.110000e+01
    endloop
  endfacet
  facet normal -1.000000e+00 0.000000e+00 0.000000e+00
    outer loop
      vertex   -5.551115e-16 7.318826e+01 1.609092e+01
      vertex   -5.551115e-16 6.850000e+01 2.110000e+01
      vertex   -5.551115e-16 7.328306e+01 1.615048e+01
    endloop
  endfacet
  facet normal -1.000000e+00 0.000000e+00 0.000000e+00
    outer loop
      vertex   -5.551115e-16 7.328306e+01 1.615048e+01
      vertex   -5.551115e-16 6.850000e+01 2.110000e+01
      vertex   -5.551115e-16 7.338874e+01 1.618746e+01
    endloop
  endfacet
  facet normal -1.000000e+00 0.000000e+00 0.000000e+00
    outer loop
      vertex   -5.551115e-16 7.338874e+01 1.618746e+01
      vertex   -5.551115e-16 6.850000e+01 2.110000e+01
      vertex   -5.551115e-16 7.350000e+01 1.620000e+01
    endloop
  endfacet
  facet normal -1.000000e+00 0.000000e+00 0.000000e+00
    outer loop
      vertex   -5.551115e-16 7.350000e+01 1.620000e+01
      vertex   -5.551115e-16 6.850000e+01 2.110000e+01
      vertex   -5.551115e-16 9.250000e+01 2.110000e+01
    endloop
  endfacet
  facet normal -1.000000e+00 0.000000e+00 0.000000e+00
    outer loop
      vertex   -5.551115e-16 7.350000e+01 1.620000e+01
      vertex   -5.551115e-16 9.250000e+01 2.110000e+01
      vertex   -5.551115e-16 8.750000e+01 1.620000e+01
    endloop
  endfacet
  facet normal -1.000000e+00 0.000000e+00 0.000000e+00
    outer loop
      vertex   -5.551115e-16 8.750000e+01 1.620000e+01
      vertex   -5.551115e-16 9.250000e+01 2.110000e+01
      vertex   -5.551115e-16 8.761126e+01 1.618746e+01
    endloop
  endfacet
  facet normal -1.000000e+00 0.000000e+00 0.000000e+00
    outer loop
      vertex   -5.551115e-16 8.761126e+01 1.618746e+01
      vertex   -5.551115e-16 9.250000e+01 2.110000e+01
      vertex   -5.551115e-16 8.771694e+01 1.615048e+01
    endloop
  endfacet
  facet normal -1.000000e+00 0.000000e+00 0.000000e+00
    outer loop
      vertex   -5.551115e-16 8.771694e+01 1.615048e+01
      vertex   -5.551115e-16 9.250000e+01 2.110000e+01
      vertex   -5.551115e-16 8.781174e+01 1.609092e+01
    endloop
  endfacet
  facet normal -1.000000e+00 0.000000e+00 0.000000e+00
    outer loop
      vertex   -5.551115e-16 8.781174e+01 1.609092e+01
      vertex   -5.551115e-16 9.250000e+01 2.110000e+01
      vertex   -5.551115e-16 9.250000e+01 1.395000e+01
    endloop
  endfacet
  facet normal -1.000000e+00 0.000000e+00 0.000000e+00
    outer loop
      vertex   -5.551115e-16 8.781174e+01 1.609092e+01
      vertex   -5.551115e-16 9.250000e+01 1.395000e+01
      vertex   -5.551115e-16 8.789092e+01 1.601174e+01
    endloop
  endfacet
  facet normal -1.000000e+00 0.000000e+00 0.000000e+00
    outer loop
      vertex   -5.551115e-16 8.789092e+01 1.601174e+01
      vertex   -5.551115e-16 9.250000e+01 1.395000e+01
      vertex   -5.551115e-16 8.795048e+01 1.591694e+01
    endloop
  endfacet
  facet normal -1.000000e+00 0.000000e+00 0.000000e+00
    outer loop
      vertex   -5.551115e-16 8.795048e+01 1.591694e+01
      vertex   -5.551115e-16 9.250000e+01 1.395000e+01
      vertex   -5.551115e-16 8.798746e+01 1.581126e+01
    endloop
  endfacet
  facet normal -1.000000e+00 0.000000e+00 0.000000e+00
    outer loop
      vertex   -5.551115e-16 8.798746e+01 1.581126e+01
      vertex   -5.551115e-16 9.250000e+01 1.395000e+01
      vertex   -5.551115e-16 8.800000e+01 1.570000e+01
    endloop
  endfacet
  facet normal -1.000000e+00 -1.233581e-16 -3.172066e-16
    outer loop
      vertex   -5.551115e-16 8.800000e+01 1.570000e+01
      vertex   -5.551115e-16 9.250000e+01 1.395000e+01
      vertex   0.000000e+00 8.800000e+01 1.395000e+01
    endloop
  endfacet
endsolid
