solid ASCII
  facet normal 0.000000e+00 6.037850e-02 9.981756e-01
    outer loop
      vertex   2.000000e+00 7.500000e+01 1.000000e+01
      vertex   -5.551115e-16 7.500000e+01 1.000000e+01
      vertex   2.000000e+00 7.475893e+01 1.001458e+01
    endloop
  endfacet
  facet normal 0.000000e+00 6.037850e-02 9.981756e-01
    outer loop
      vertex   2.000000e+00 7.475893e+01 1.001458e+01
      vertex   -5.551115e-16 7.500000e+01 1.000000e+01
      vertex   -5.551115e-16 7.475893e+01 1.001458e+01
    endloop
  endfacet
  facet normal 0.000000e+00 1.802550e-01 9.836199e-01
    outer loop
      vertex   2.000000e+00 7.475893e+01 1.001458e+01
      vertex   -5.551115e-16 7.475893e+01 1.001458e+01
      vertex   2.000000e+00 7.452137e+01 1.005812e+01
    endloop
  endfacet
  facet normal 0.000000e+00 1.802550e-01 9.836199e-01
    outer loop
      vertex   2.000000e+00 7.452137e+01 1.005812e+01
      vertex   -5.551115e-16 7.475893e+01 1.001458e+01
      vertex   -5.551115e-16 7.452137e+01 1.005812e+01
    endloop
  endfacet
  facet normal 0.000000e+00 2.975031e-01 9.547209e-01
    outer loop
      vertex   2.000000e+00 7.452137e+01 1.005812e+01
      vertex   -5.551115e-16 7.452137e+01 1.005812e+01
      vertex   2.000000e+00 7.429079e+01 1.012997e+01
    endloop
  endfacet
  facet normal -8.479625e-16 2.975031e-01 9.547209e-01
    outer loop
      vertex   2.000000e+00 7.429079e+01 1.012997e+01
      vertex   -5.551115e-16 7.452137e+01 1.005812e+01
      vertex   -5.551115e-16 7.429079e+01 1.012997e+01
    endloop
  endfacet
  facet normal -8.099298e-16 4.104128e-01 9.118998e-01
    outer loop
      vertex   2.000000e+00 7.429079e+01 1.012997e+01
      vertex   -5.551115e-16 7.429079e+01 1.012997e+01
      vertex   2.000000e+00 7.407055e+01 1.022909e+01
    endloop
  endfacet
  facet normal 0.000000e+00 4.104128e-01 9.118998e-01
    outer loop
      vertex   2.000000e+00 7.407055e+01 1.022909e+01
      vertex   -5.551115e-16 7.429079e+01 1.012997e+01
      vertex   -5.551115e-16 7.407055e+01 1.022909e+01
    endloop
  endfacet
  facet normal 0.000000e+00 5.173378e-01 8.557813e-01
    outer loop
      vertex   2.000000e+00 7.407055e+01 1.022909e+01
      vertex   -5.551115e-16 7.407055e+01 1.022909e+01
      vertex   2.000000e+00 7.386387e+01 1.035403e+01
    endloop
  endfacet
  facet normal 0.000000e+00 5.173378e-01 8.557813e-01
    outer loop
      vertex   2.000000e+00 7.386387e+01 1.035403e+01
      vertex   -5.551115e-16 7.407055e+01 1.022909e+01
      vertex   -5.551115e-16 7.386387e+01 1.035403e+01
    endloop
  endfacet
  facet normal 0.000000e+00 6.167189e-01 7.871835e-01
    outer loop
      vertex   2.000000e+00 7.386387e+01 1.035403e+01
      vertex   -5.551115e-16 7.386387e+01 1.035403e+01
      vertex   2.000000e+00 7.367375e+01 1.050298e+01
    endloop
  endfacet
  facet normal 6.991594e-16 6.167189e-01 7.871835e-01
    outer loop
      vertex   2.000000e+00 7.367375e+01 1.050298e+01
      vertex   -5.551115e-16 7.386387e+01 1.035403e+01
      vertex   -5.551115e-16 7.367375e+01 1.050298e+01
    endloop
  endfacet
  facet normal 6.280370e-16 7.071068e-01 7.071068e-01
    outer loop
      vertex   2.000000e+00 7.367375e+01 1.050298e+01
      vertex   -5.551115e-16 7.367375e+01 1.050298e+01
      vertex   2.000000e+00 7.350298e+01 1.067375e+01
    endloop
  endfacet
  facet normal 0.000000e+00 7.071068e-01 7.071068e-01
    outer loop
      vertex   2.000000e+00 7.350298e+01 1.067375e+01
      vertex   -5.551115e-16 7.367375e+01 1.050298e+01
      vertex   -5.551115e-16 7.350298e+01 1.067375e+01
    endloop
  endfacet
  facet normal 0.000000e+00 7.871835e-01 6.167189e-01
    outer loop
      vertex   2.000000e+00 7.350298e+01 1.067375e+01
      vertex   -5.551115e-16 7.350298e+01 1.067375e+01
      vertex   2.000000e+00 7.335403e+01 1.086387e+01
    endloop
  endfacet
  facet normal 0.000000e+00 7.871835e-01 6.167189e-01
    outer loop
      vertex   2.000000e+00 7.335403e+01 1.086387e+01
      vertex   -5.551115e-16 7.350298e+01 1.067375e+01
      vertex   -5.551115e-16 7.335403e+01 1.086387e+01
    endloop
  endfacet
  facet normal 0.000000e+00 8.557813e-01 5.173378e-01
    outer loop
      vertex   2.000000e+00 7.335403e+01 1.086387e+01
      vertex   -5.551115e-16 7.335403e+01 1.086387e+01
      vertex   2.000000e+00 7.322909e+01 1.107055e+01
    endloop
  endfacet
  facet normal 0.000000e+00 8.557813e-01 5.173378e-01
    outer loop
      vertex   2.000000e+00 7.322909e+01 1.107055e+01
      vertex   -5.551115e-16 7.335403e+01 1.086387e+01
      vertex   -5.551115e-16 7.322909e+01 1.107055e+01
    endloop
  endfacet
  facet normal 0.000000e+00 9.118998e-01 4.104128e-01
    outer loop
      vertex   2.000000e+00 7.322909e+01 1.107055e+01
      vertex   -5.551115e-16 7.322909e+01 1.107055e+01
      vertex   2.000000e+00 7.312997e+01 1.129079e+01
    endloop
  endfacet
  facet normal 0.000000e+00 9.118998e-01 4.104128e-01
    outer loop
      vertex   2.000000e+00 7.312997e+01 1.129079e+01
      vertex   -5.551115e-16 7.322909e+01 1.107055e+01
      vertex   -5.551115e-16 7.312997e+01 1.129079e+01
    endloop
  endfacet
  facet normal 0.000000e+00 9.547209e-01 2.975031e-01
    outer loop
      vertex   2.000000e+00 7.312997e+01 1.129079e+01
      vertex   -5.551115e-16 7.312997e+01 1.129079e+01
      vertex   2.000000e+00 7.305812e+01 1.152137e+01
    endloop
  endfacet
  facet normal 0.000000e+00 9.547209e-01 2.975031e-01
    outer loop
      vertex   2.000000e+00 7.305812e+01 1.152137e+01
      vertex   -5.551115e-16 7.312997e+01 1.129079e+01
      vertex   -5.551115e-16 7.305812e+01 1.152137e+01
    endloop
  endfacet
  facet normal 0.000000e+00 9.836199e-01 1.802550e-01
    outer loop
      vertex   2.000000e+00 7.305812e+01 1.152137e+01
      vertex   -5.551115e-16 7.305812e+01 1.152137e+01
      vertex   2.000000e+00 7.301458e+01 1.175893e+01
    endloop
  endfacet
  facet normal 0.000000e+00 9.836199e-01 1.802550e-01
    outer loop
      vertex   2.000000e+00 7.301458e+01 1.175893e+01
      vertex   -5.551115e-16 7.305812e+01 1.152137e+01
      vertex   -5.551115e-16 7.301458e+01 1.175893e+01
    endloop
  endfacet
  facet normal 0.000000e+00 9.981756e-01 6.037850e-02
    outer loop
      vertex   2.000000e+00 7.301458e+01 1.175893e+01
      vertex   -5.551115e-16 7.301458e+01 1.175893e+01
      vertex   2.000000e+00 7.300000e+01 1.200000e+01
    endloop
  endfacet
  facet normal 0.000000e+00 9.981756e-01 6.037850e-02
    outer loop
      vertex   2.000000e+00 7.300000e+01 1.200000e+01
      vertex   -5.551115e-16 7.301458e+01 1.175893e+01
      vertex   -5.551115e-16 7.300000e+01 1.200000e+01
    endloop
  endfacet
  facet normal 0.000000e+00 1.000000e+00 0.000000e+00
    outer loop
      vertex   -5.551115e-16 7.300000e+01 1.200000e+01
      vertex   0.000000e+00 7.300000e+01 1.395000e+01
      vertex   2.000000e+00 7.300000e+01 1.200000e+01
    endloop
  endfacet
  facet normal 0.000000e+00 1.000000e+00 -0.000000e+00
    outer loop
      vertex   2.000000e+00 7.300000e+01 1.200000e+01
      vertex   0.000000e+00 7.300000e+01 1.395000e+01
      vertex   2.000000e+00 7.300000e+01 1.395000e+01
    endloop
  endfacet
  facet normal 0.000000e+00 -9.981756e-01 6.037850e-02
    outer loop
      vertex   2.000000e+00 8.800000e+01 1.200000e+01
      vertex   -5.551115e-16 8.800000e+01 1.200000e+01
      vertex   2.000000e+00 8.798542e+01 1.175893e+01
    endloop
  endfacet
  facet normal 1.072538e-16 -9.981756e-01 6.037850e-02
    outer loop
      vertex   2.000000e+00 8.798542e+01 1.175893e+01
      vertex   -5.551115e-16 8.800000e+01 1.200000e+01
      vertex   -5.551115e-16 8.798542e+01 1.175893e+01
    endloop
  endfacet
  facet normal 3.201973e-16 -9.836199e-01 1.802550e-01
    outer loop
      vertex   2.000000e+00 8.798542e+01 1.175893e+01
      vertex   -5.551115e-16 8.798542e+01 1.175893e+01
      vertex   2.000000e+00 8.794188e+01 1.152137e+01
    endloop
  endfacet
  facet normal 0.000000e+00 -9.836199e-01 1.802550e-01
    outer loop
      vertex   2.000000e+00 8.794188e+01 1.152137e+01
      vertex   -5.551115e-16 8.798542e+01 1.175893e+01
      vertex   -5.551115e-16 8.794188e+01 1.152137e+01
    endloop
  endfacet
  facet normal 0.000000e+00 -9.547209e-01 2.975031e-01
    outer loop
      vertex   2.000000e+00 8.794188e+01 1.152137e+01
      vertex   -5.551115e-16 8.794188e+01 1.152137e+01
      vertex   2.000000e+00 8.787003e+01 1.129079e+01
    endloop
  endfacet
  facet normal 0.000000e+00 -9.547209e-01 2.975031e-01
    outer loop
      vertex   2.000000e+00 8.787003e+01 1.129079e+01
      vertex   -5.551115e-16 8.794188e+01 1.152137e+01
      vertex   -5.551115e-16 8.787003e+01 1.129079e+01
    endloop
  endfacet
  facet normal 0.000000e+00 -9.118998e-01 4.104128e-01
    outer loop
      vertex   2.000000e+00 8.787003e+01 1.129079e+01
      vertex   -5.551115e-16 8.787003e+01 1.129079e+01
      vertex   2.000000e+00 8.777091e+01 1.107055e+01
    endloop
  endfacet
  facet normal 0.000000e+00 -9.118998e-01 4.104128e-01
    outer loop
      vertex   2.000000e+00 8.777091e+01 1.107055e+01
      vertex   -5.551115e-16 8.787003e+01 1.129079e+01
      vertex   -5.551115e-16 8.777091e+01 1.107055e+01
    endloop
  endfacet
  facet normal 0.000000e+00 -8.557813e-01 5.173378e-01
    outer loop
      vertex   2.000000e+00 8.777091e+01 1.107055e+01
      vertex   -5.551115e-16 8.777091e+01 1.107055e+01
      vertex   2.000000e+00 8.764597e+01 1.086387e+01
    endloop
  endfacet
  facet normal 0.000000e+00 -8.557813e-01 5.173378e-01
    outer loop
      vertex   2.000000e+00 8.764597e+01 1.086387e+01
      vertex   -5.551115e-16 8.777091e+01 1.107055e+01
      vertex   -5.551115e-16 8.764597e+01 1.086387e+01
    endloop
  endfacet
  facet normal 0.000000e+00 -7.871835e-01 6.167189e-01
    outer loop
      vertex   2.000000e+00 8.764597e+01 1.086387e+01
      vertex   -5.551115e-16 8.764597e+01 1.086387e+01
      vertex   2.000000e+00 8.749702e+01 1.067375e+01
    endloop
  endfacet
  facet normal 0.000000e+00 -7.871835e-01 6.167189e-01
    outer loop
      vertex   2.000000e+00 8.749702e+01 1.067375e+01
      vertex   -5.551115e-16 8.764597e+01 1.086387e+01
      vertex   -5.551115e-16 8.749702e+01 1.067375e+01
    endloop
  endfacet
  facet normal 0.000000e+00 -7.071068e-01 7.071068e-01
    outer loop
      vertex   2.000000e+00 8.749702e+01 1.067375e+01
      vertex   -5.551115e-16 8.749702e+01 1.067375e+01
      vertex   2.000000e+00 8.732625e+01 1.050298e+01
    endloop
  endfacet
  facet normal 6.280370e-16 -7.071068e-01 7.071068e-01
    outer loop
      vertex   2.000000e+00 8.732625e+01 1.050298e+01
      vertex   -5.551115e-16 8.749702e+01 1.067375e+01
      vertex   -5.551115e-16 8.732625e+01 1.050298e+01
    endloop
  endfacet
  facet normal 6.991594e-16 -6.167189e-01 7.871835e-01
    outer loop
      vertex   2.000000e+00 8.732625e+01 1.050298e+01
      vertex   -5.551115e-16 8.732625e+01 1.050298e+01
      vertex   2.000000e+00 8.713613e+01 1.035403e+01
    endloop
  endfacet
  facet normal 0.000000e+00 -6.167189e-01 7.871835e-01
    outer loop
      vertex   2.000000e+00 8.713613e+01 1.035403e+01
      vertex   -5.551115e-16 8.732625e+01 1.050298e+01
      vertex   -5.551115e-16 8.713613e+01 1.035403e+01
    endloop
  endfacet
  facet normal 0.000000e+00 -5.173378e-01 8.557813e-01
    outer loop
      vertex   2.000000e+00 8.713613e+01 1.035403e+01
      vertex   -5.551115e-16 8.713613e+01 1.035403e+01
      vertex   2.000000e+00 8.692945e+01 1.022909e+01
    endloop
  endfacet
  facet normal 0.000000e+00 -5.173378e-01 8.557813e-01
    outer loop
      vertex   2.000000e+00 8.692945e+01 1.022909e+01
      vertex   -5.551115e-16 8.713613e+01 1.035403e+01
      vertex   -5.551115e-16 8.692945e+01 1.022909e+01
    endloop
  endfacet
  facet normal 0.000000e+00 -4.104128e-01 9.118998e-01
    outer loop
      vertex   2.000000e+00 8.692945e+01 1.022909e+01
      vertex   -5.551115e-16 8.692945e+01 1.022909e+01
      vertex   2.000000e+00 8.670921e+01 1.012997e+01
    endloop
  endfacet
  facet normal 0.000000e+00 -4.104128e-01 9.118998e-01
    outer loop
      vertex   2.000000e+00 8.670921e+01 1.012997e+01
      vertex   -5.551115e-16 8.692945e+01 1.022909e+01
      vertex   -5.551115e-16 8.670921e+01 1.012997e+01
    endloop
  endfacet
  facet normal 0.000000e+00 -2.975031e-01 9.547209e-01
    outer loop
      vertex   2.000000e+00 8.670921e+01 1.012997e+01
      vertex   -5.551115e-16 8.670921e+01 1.012997e+01
      vertex   2.000000e+00 8.647863e+01 1.005812e+01
    endloop
  endfacet
  facet normal 0.000000e+00 -2.975031e-01 9.547209e-01
    outer loop
      vertex   2.000000e+00 8.647863e+01 1.005812e+01
      vertex   -5.551115e-16 8.670921e+01 1.012997e+01
      vertex   -5.551115e-16 8.647863e+01 1.005812e+01
    endloop
  endfacet
  facet normal 0.000000e+00 -1.802550e-01 9.836199e-01
    outer loop
      vertex   2.000000e+00 8.647863e+01 1.005812e+01
      vertex   -5.551115e-16 8.647863e+01 1.005812e+01
      vertex   2.000000e+00 8.624107e+01 1.001458e+01
    endloop
  endfacet
  facet normal 0.000000e+00 -1.802550e-01 9.836199e-01
    outer loop
      vertex   2.000000e+00 8.624107e+01 1.001458e+01
      vertex   -5.551115e-16 8.647863e+01 1.005812e+01
      vertex   -5.551115e-16 8.624107e+01 1.001458e+01
    endloop
  endfacet
  facet normal 0.000000e+00 -6.037850e-02 9.981756e-01
    outer loop
      vertex   2.000000e+00 8.624107e+01 1.001458e+01
      vertex   -5.551115e-16 8.624107e+01 1.001458e+01
      vertex   2.000000e+00 8.600000e+01 1.000000e+01
    endloop
  endfacet
  facet normal 0.000000e+00 -6.037850e-02 9.981756e-01
    outer loop
      vertex   2.000000e+00 8.600000e+01 1.000000e+01
      vertex   -5.551115e-16 8.624107e+01 1.001458e+01
      vertex   -5.551115e-16 8.600000e+01 1.000000e+01
    endloop
  endfacet
  facet normal 0.000000e+00 -0.000000e+00 1.000000e+00
    outer loop
      vertex   2.000000e+00 7.500000e+01 1.000000e+01
      vertex   2.000000e+00 8.600000e+01 1.000000e+01
      vertex   -5.551115e-16 7.500000e+01 1.000000e+01
    endloop
  endfacet
  facet normal 0.000000e+00 0.000000e+00 1.000000e+00
    outer loop
      vertex   -5.551115e-16 7.500000e+01 1.000000e+01
      vertex   2.000000e+00 8.600000e+01 1.000000e+01
      vertex   -5.551115e-16 8.600000e+01 1.000000e+01
    endloop
  endfacet
  facet normal 0.000000e+00 1.000000e+00 0.000000e+00
    outer loop
      vertex   -5.551115e-16 9.250000e+01 5.100000e+00
      vertex   -5.551115e-16 9.250000e+01 1.395000e+01
      vertex   2.000000e+00 9.250000e+01 5.100000e+00
    endloop
  endfacet
  facet normal 0.000000e+00 1.000000e+00 -0.000000e+00
    outer loop
      vertex   2.000000e+00 9.250000e+01 5.100000e+00
      vertex   -5.551115e-16 9.250000e+01 1.395000e+01
      vertex   2.000000e+00 9.250000e+01 1.395000e+01
    endloop
  endfacet
  facet normal 0.000000e+00 0.000000e+00 -1.000000e+00
    outer loop
      vertex   -5.551115e-16 6.850000e+01 5.100000e+00
      vertex   -5.551115e-16 9.250000e+01 5.100000e+00
      vertex   2.000000e+00 6.850000e+01 5.100000e+00
    endloop
  endfacet
  facet normal 0.000000e+00 0.000000e+00 -1.000000e+00
    outer loop
      vertex   2.000000e+00 6.850000e+01 5.100000e+00
      vertex   -5.551115e-16 9.250000e+01 5.100000e+00
      vertex   2.000000e+00 9.250000e+01 5.100000e+00
    endloop
  endfacet
  facet normal 0.000000e+00 -1.000000e+00 0.000000e+00
    outer loop
      vertex   -5.551115e-16 6.850000e+01 1.395000e+01
      vertex   -5.551115e-16 6.850000e+01 5.100000e+00
      vertex   2.000000e+00 6.850000e+01 1.395000e+01
    endloop
  endfacet
  facet normal 0.000000e+00 -1.000000e+00 -0.000000e+00
    outer loop
      vertex   2.000000e+00 6.850000e+01 1.395000e+01
      vertex   -5.551115e-16 6.850000e+01 5.100000e+00
      vertex   2.000000e+00 6.850000e+01 5.100000e+00
    endloop
  endfacet
  facet normal -0.000000e+00 0.000000e+00 1.000000e+00
    outer loop
      vertex   0.000000e+00 7.300000e+01 1.395000e+01
      vertex   -5.551115e-16 6.850000e+01 1.395000e+01
      vertex   2.000000e+00 7.300000e+01 1.395000e+01
    endloop
  endfacet
  facet normal 0.000000e+00 0.000000e+00 1.000000e+00
    outer loop
      vertex   2.000000e+00 7.300000e+01 1.395000e+01
      vertex   -5.551115e-16 6.850000e+01 1.395000e+01
      vertex   2.000000e+00 6.850000e+01 1.395000e+01
    endloop
  endfacet
  facet normal 0.000000e+00 -1.000000e+00 0.000000e+00
    outer loop
      vertex   2.000000e+00 8.800000e+01 1.200000e+01
      vertex   2.000000e+00 8.800000e+01 1.395000e+01
      vertex   -5.551115e-16 8.800000e+01 1.200000e+01
    endloop
  endfacet
  facet normal 0.000000e+00 -1.000000e+00 0.000000e+00
    outer loop
      vertex   -5.551115e-16 8.800000e+01 1.200000e+01
      vertex   2.000000e+00 8.800000e+01 1.395000e+01
      vertex   0.000000e+00 8.800000e+01 1.395000e+01
    endloop
  endfacet
  facet normal -0.000000e+00 0.000000e+00 1.000000e+00
    outer loop
      vertex   -5.551115e-16 9.250000e+01 1.395000e+01
      vertex   0.000000e+00 8.800000e+01 1.395000e+01
      vertex   2.000000e+00 9.250000e+01 1.395000e+01
    endloop
  endfacet
  facet normal 0.000000e+00 0.000000e+00 1.000000e+00
    outer loop
      vertex   2.000000e+00 9.250000e+01 1.395000e+01
      vertex   0.000000e+00 8.800000e+01 1.395000e+01
      vertex   2.000000e+00 8.800000e+01 1.395000e+01
    endloop
  endfacet
  facet normal 1.000000e+00 9.868649e-17 -2.277381e-16
    outer loop
      vertex   2.000000e+00 8.800000e+01 1.395000e+01
      vertex   2.000000e+00 8.800000e+01 1.200000e+01
      vertex   2.000000e+00 9.250000e+01 1.395000e+01
    endloop
  endfacet
  facet normal 1.000000e+00 0.000000e+00 0.000000e+00
    outer loop
      vertex   2.000000e+00 9.250000e+01 1.395000e+01
      vertex   2.000000e+00 8.800000e+01 1.200000e+01
      vertex   2.000000e+00 8.798542e+01 1.175893e+01
    endloop
  endfacet
  facet normal 1.000000e+00 0.000000e+00 0.000000e+00
    outer loop
      vertex   2.000000e+00 9.250000e+01 1.395000e+01
      vertex   2.000000e+00 8.798542e+01 1.175893e+01
      vertex   2.000000e+00 8.794188e+01 1.152137e+01
    endloop
  endfacet
  facet normal 1.000000e+00 -0.000000e+00 0.000000e+00
    outer loop
      vertex   2.000000e+00 8.794188e+01 1.152137e+01
      vertex   2.000000e+00 8.787003e+01 1.129079e+01
      vertex   2.000000e+00 9.250000e+01 1.395000e+01
    endloop
  endfacet
  facet normal 1.000000e+00 0.000000e+00 0.000000e+00
    outer loop
      vertex   2.000000e+00 9.250000e+01 1.395000e+01
      vertex   2.000000e+00 8.787003e+01 1.129079e+01
      vertex   2.000000e+00 8.777091e+01 1.107055e+01
    endloop
  endfacet
  facet normal 1.000000e+00 0.000000e+00 0.000000e+00
    outer loop
      vertex   2.000000e+00 9.250000e+01 1.395000e+01
      vertex   2.000000e+00 8.777091e+01 1.107055e+01
      vertex   2.000000e+00 8.764597e+01 1.086387e+01
    endloop
  endfacet
  facet normal 1.000000e+00 0.000000e+00 0.000000e+00
    outer loop
      vertex   2.000000e+00 9.250000e+01 1.395000e+01
      vertex   2.000000e+00 8.764597e+01 1.086387e+01
      vertex   2.000000e+00 9.250000e+01 5.100000e+00
    endloop
  endfacet
  facet normal 1.000000e+00 0.000000e+00 0.000000e+00
    outer loop
      vertex   2.000000e+00 9.250000e+01 5.100000e+00
      vertex   2.000000e+00 8.764597e+01 1.086387e+01
      vertex   2.000000e+00 8.749702e+01 1.067375e+01
    endloop
  endfacet
  facet normal 1.000000e+00 0.000000e+00 0.000000e+00
    outer loop
      vertex   2.000000e+00 9.250000e+01 5.100000e+00
      vertex   2.000000e+00 8.749702e+01 1.067375e+01
      vertex   2.000000e+00 8.732625e+01 1.050298e+01
    endloop
  endfacet
  facet normal 1.000000e+00 0.000000e+00 0.000000e+00
    outer loop
      vertex   2.000000e+00 8.732625e+01 1.050298e+01
      vertex   2.000000e+00 8.713613e+01 1.035403e+01
      vertex   2.000000e+00 9.250000e+01 5.100000e+00
    endloop
  endfacet
  facet normal 1.000000e+00 0.000000e+00 0.000000e+00
    outer loop
      vertex   2.000000e+00 9.250000e+01 5.100000e+00
      vertex   2.000000e+00 8.713613e+01 1.035403e+01
      vertex   2.000000e+00 8.692945e+01 1.022909e+01
    endloop
  endfacet
  facet normal 1.000000e+00 0.000000e+00 0.000000e+00
    outer loop
      vertex   2.000000e+00 9.250000e+01 5.100000e+00
      vertex   2.000000e+00 8.692945e+01 1.022909e+01
      vertex   2.000000e+00 8.670921e+01 1.012997e+01
    endloop
  endfacet
  facet normal 1.000000e+00 0.000000e+00 0.000000e+00
    outer loop
      vertex   2.000000e+00 8.670921e+01 1.012997e+01
      vertex   2.000000e+00 8.647863e+01 1.005812e+01
      vertex   2.000000e+00 9.250000e+01 5.100000e+00
    endloop
  endfacet
  facet normal 1.000000e+00 0.000000e+00 0.000000e+00
    outer loop
      vertex   2.000000e+00 9.250000e+01 5.100000e+00
      vertex   2.000000e+00 8.647863e+01 1.005812e+01
      vertex   2.000000e+00 8.624107e+01 1.001458e+01
    endloop
  endfacet
  facet normal 1.000000e+00 0.000000e+00 0.000000e+00
    outer loop
      vertex   2.000000e+00 9.250000e+01 5.100000e+00
      vertex   2.000000e+00 8.624107e+01 1.001458e+01
      vertex   2.000000e+00 8.600000e+01 1.000000e+01
    endloop
  endfacet
  facet normal 1.000000e+00 0.000000e+00 0.000000e+00
    outer loop
      vertex   2.000000e+00 9.250000e+01 5.100000e+00
      vertex   2.000000e+00 8.600000e+01 1.000000e+01
      vertex   2.000000e+00 6.850000e+01 5.100000e+00
    endloop
  endfacet
  facet normal 1.000000e+00 0.000000e+00 0.000000e+00
    outer loop
      vertex   2.000000e+00 6.850000e+01 5.100000e+00
      vertex   2.000000e+00 8.600000e+01 1.000000e+01
      vertex   2.000000e+00 7.500000e+01 1.000000e+01
    endloop
  endfacet
  facet normal 1.000000e+00 0.000000e+00 0.000000e+00
    outer loop
      vertex   2.000000e+00 6.850000e+01 5.100000e+00
      vertex   2.000000e+00 7.500000e+01 1.000000e+01
      vertex   2.000000e+00 7.475893e+01 1.001458e+01
    endloop
  endfacet
  facet normal 1.000000e+00 0.000000e+00 0.000000e+00
    outer loop
      vertex   2.000000e+00 7.475893e+01 1.001458e+01
      vertex   2.000000e+00 7.452137e+01 1.005812e+01
      vertex   2.000000e+00 6.850000e+01 5.100000e+00
    endloop
  endfacet
  facet normal 1.000000e+00 0.000000e+00 0.000000e+00
    outer loop
      vertex   2.000000e+00 6.850000e+01 5.100000e+00
      vertex   2.000000e+00 7.452137e+01 1.005812e+01
      vertex   2.000000e+00 7.429079e+01 1.012997e+01
    endloop
  endfacet
  facet normal 1.000000e+00 0.000000e+00 0.000000e+00
    outer loop
      vertex   2.000000e+00 6.850000e+01 5.100000e+00
      vertex   2.000000e+00 7.429079e+01 1.012997e+01
      vertex   2.000000e+00 7.407055e+01 1.022909e+01
    endloop
  endfacet
  facet normal 1.000000e+00 0.000000e+00 0.000000e+00
    outer loop
      vertex   2.000000e+00 7.407055e+01 1.022909e+01
      vertex   2.000000e+00 7.386387e+01 1.035403e+01
      vertex   2.000000e+00 6.850000e+01 5.100000e+00
    endloop
  endfacet
  facet normal 1.000000e+00 0.000000e+00 0.000000e+00
    outer loop
      vertex   2.000000e+00 6.850000e+01 5.100000e+00
      vertex   2.000000e+00 7.386387e+01 1.035403e+01
      vertex   2.000000e+00 7.367375e+01 1.050298e+01
    endloop
  endfacet
  facet normal 1.000000e+00 0.000000e+00 0.000000e+00
    outer loop
      vertex   2.000000e+00 6.850000e+01 5.100000e+00
      vertex   2.000000e+00 7.367375e+01 1.050298e+01
      vertex   2.000000e+00 7.350298e+01 1.067375e+01
    endloop
  endfacet
  facet normal 1.000000e+00 0.000000e+00 0.000000e+00
    outer loop
      vertex   2.000000e+00 7.350298e+01 1.067375e+01
      vertex   2.000000e+00 7.335403e+01 1.086387e+01
      vertex   2.000000e+00 6.850000e+01 5.100000e+00
    endloop
  endfacet
  facet normal 1.000000e+00 0.000000e+00 0.000000e+00
    outer loop
      vertex   2.000000e+00 6.850000e+01 5.100000e+00
      vertex   2.000000e+00 7.335403e+01 1.086387e+01
      vertex   2.000000e+00 6.850000e+01 1.395000e+01
    endloop
  endfacet
  facet normal 1.000000e+00 0.000000e+00 0.000000e+00
    outer loop
      vertex   2.000000e+00 6.850000e+01 1.395000e+01
      vertex   2.000000e+00 7.335403e+01 1.086387e+01
      vertex   2.000000e+00 7.322909e+01 1.107055e+01
    endloop
  endfacet
  facet normal 1.000000e+00 0.000000e+00 0.000000e+00
    outer loop
      vertex   2.000000e+00 6.850000e+01 1.395000e+01
      vertex   2.000000e+00 7.322909e+01 1.107055e+01
      vertex   2.000000e+00 7.312997e+01 1.129079e+01
    endloop
  endfacet
  facet normal 1.000000e+00 0.000000e+00 0.000000e+00
    outer loop
      vertex   2.000000e+00 7.312997e+01 1.129079e+01
      vertex   2.000000e+00 7.305812e+01 1.152137e+01
      vertex   2.000000e+00 6.850000e+01 1.395000e+01
    endloop
  endfacet
  facet normal 1.000000e+00 0.000000e+00 0.000000e+00
    outer loop
      vertex   2.000000e+00 6.850000e+01 1.395000e+01
      vertex   2.000000e+00 7.305812e+01 1.152137e+01
      vertex   2.000000e+00 7.301458e+01 1.175893e+01
    endloop
  endfacet
  facet normal 1.000000e+00 0.000000e+00 0.000000e+00
    outer loop
      vertex   2.000000e+00 6.850000e+01 1.395000e+01
      vertex   2.000000e+00 7.301458e+01 1.175893e+01
      vertex   2.000000e+00 7.300000e+01 1.200000e+01
    endloop
  endfacet
  facet normal 1.000000e+00 -9.868649e-17 -2.277381e-16
    outer loop
      vertex   2.000000e+00 7.300000e+01 1.200000e+01
      vertex   2.000000e+00 7.300000e+01 1.395000e+01
      vertex   2.000000e+00 6.850000e+01 1.395000e+01
    endloop
  endfacet
  facet normal -1.000000e+00 -1.233581e-16 2.846726e-16
    outer loop
      vertex   0.000000e+00 8.800000e+01 1.395000e+01
      vertex   -5.551115e-16 9.250000e+01 1.395000e+01
      vertex   -5.551115e-16 8.800000e+01 1.200000e+01
    endloop
  endfacet
  facet normal -1.000000e+00 0.000000e+00 -0.000000e+00
    outer loop
      vertex   -5.551115e-16 8.800000e+01 1.200000e+01
      vertex   -5.551115e-16 9.250000e+01 1.395000e+01
      vertex   -5.551115e-16 8.798542e+01 1.175893e+01
    endloop
  endfacet
  facet normal -1.000000e+00 0.000000e+00 -0.000000e+00
    outer loop
      vertex   -5.551115e-16 8.798542e+01 1.175893e+01
      vertex   -5.551115e-16 9.250000e+01 1.395000e+01
      vertex   -5.551115e-16 8.794188e+01 1.152137e+01
    endloop
  endfacet
  facet normal -1.000000e+00 0.000000e+00 -0.000000e+00
    outer loop
      vertex   -5.551115e-16 8.794188e+01 1.152137e+01
      vertex   -5.551115e-16 9.250000e+01 1.395000e+01
      vertex   -5.551115e-16 8.787003e+01 1.129079e+01
    endloop
  endfacet
  facet normal -1.000000e+00 0.000000e+00 -0.000000e+00
    outer loop
      vertex   -5.551115e-16 8.787003e+01 1.129079e+01
      vertex   -5.551115e-16 9.250000e+01 1.395000e+01
      vertex   -5.551115e-16 8.777091e+01 1.107055e+01
    endloop
  endfacet
  facet normal -1.000000e+00 0.000000e+00 -0.000000e+00
    outer loop
      vertex   -5.551115e-16 8.777091e+01 1.107055e+01
      vertex   -5.551115e-16 9.250000e+01 1.395000e+01
      vertex   -5.551115e-16 8.764597e+01 1.086387e+01
    endloop
  endfacet
  facet normal -1.000000e+00 0.000000e+00 0.000000e+00
    outer loop
      vertex   -5.551115e-16 8.764597e+01 1.086387e+01
      vertex   -5.551115e-16 9.250000e+01 1.395000e+01
      vertex   -5.551115e-16 9.250000e+01 5.100000e+00
    endloop
  endfacet
  facet normal -1.000000e+00 0.000000e+00 -0.000000e+00
    outer loop
      vertex   -5.551115e-16 8.764597e+01 1.086387e+01
      vertex   -5.551115e-16 9.250000e+01 5.100000e+00
      vertex   -5.551115e-16 8.749702e+01 1.067375e+01
    endloop
  endfacet
  facet normal -1.000000e+00 0.000000e+00 -0.000000e+00
    outer loop
      vertex   -5.551115e-16 8.749702e+01 1.067375e+01
      vertex   -5.551115e-16 9.250000e+01 5.100000e+00
      vertex   -5.551115e-16 8.732625e+01 1.050298e+01
    endloop
  endfacet
  facet normal -1.000000e+00 0.000000e+00 -0.000000e+00
    outer loop
      vertex   -5.551115e-16 8.732625e+01 1.050298e+01
      vertex   -5.551115e-16 9.250000e+01 5.100000e+00
      vertex   -5.551115e-16 8.713613e+01 1.035403e+01
    endloop
  endfacet
  facet normal -1.000000e+00 0.000000e+00 -0.000000e+00
    outer loop
      vertex   -5.551115e-16 8.713613e+01 1.035403e+01
      vertex   -5.551115e-16 9.250000e+01 5.100000e+00
      vertex   -5.551115e-16 8.692945e+01 1.022909e+01
    endloop
  endfacet
  facet normal -1.000000e+00 0.000000e+00 -0.000000e+00
    outer loop
      vertex   -5.551115e-16 8.692945e+01 1.022909e+01
      vertex   -5.551115e-16 9.250000e+01 5.100000e+00
      vertex   -5.551115e-16 8.670921e+01 1.012997e+01
    endloop
  endfacet
  facet normal -1.000000e+00 0.000000e+00 -0.000000e+00
    outer loop
      vertex   -5.551115e-16 8.670921e+01 1.012997e+01
      vertex   -5.551115e-16 9.250000e+01 5.100000e+00
      vertex   -5.551115e-16 8.647863e+01 1.005812e+01
    endloop
  endfacet
  facet normal -1.000000e+00 0.000000e+00 -0.000000e+00
    outer loop
      vertex   -5.551115e-16 8.647863e+01 1.005812e+01
      vertex   -5.551115e-16 9.250000e+01 5.100000e+00
      vertex   -5.551115e-16 8.624107e+01 1.001458e+01
    endloop
  endfacet
  facet normal -1.000000e+00 0.000000e+00 -0.000000e+00
    outer loop
      vertex   -5.551115e-16 8.624107e+01 1.001458e+01
      vertex   -5.551115e-16 9.250000e+01 5.100000e+00
      vertex   -5.551115e-16 8.600000e+01 1.000000e+01
    endloop
  endfacet
  facet normal -1.000000e+00 0.000000e+00 -0.000000e+00
    outer loop
      vertex   -5.551115e-16 8.600000e+01 1.000000e+01
      vertex   -5.551115e-16 9.250000e+01 5.100000e+00
      vertex   -5.551115e-16 6.850000e+01 5.100000e+00
    endloop
  endfacet
  facet normal -1.000000e+00 -0.000000e+00 0.000000e+00
    outer loop
      vertex   -5.551115e-16 8.600000e+01 1.000000e+01
      vertex   -5.551115e-16 6.850000e+01 5.100000e+00
      vertex   -5.551115e-16 7.500000e+01 1.000000e+01
    endloop
  endfacet
  facet normal -1.000000e+00 -0.000000e+00 0.000000e+00
    outer loop
      vertex   -5.551115e-16 7.500000e+01 1.000000e+01
      vertex   -5.551115e-16 6.850000e+01 5.100000e+00
      vertex   -5.551115e-16 7.475893e+01 1.001458e+01
    endloop
  endfacet
  facet normal -1.000000e+00 -0.000000e+00 0.000000e+00
    outer loop
      vertex   -5.551115e-16 7.475893e+01 1.001458e+01
      vertex   -5.551115e-16 6.850000e+01 5.100000e+00
      vertex   -5.551115e-16 7.452137e+01 1.005812e+01
    endloop
  endfacet
  facet normal -1.000000e+00 -0.000000e+00 0.000000e+00
    outer loop
      vertex   -5.551115e-16 7.452137e+01 1.005812e+01
      vertex   -5.551115e-16 6.850000e+01 5.100000e+00
      vertex   -5.551115e-16 7.429079e+01 1.012997e+01
    endloop
  endfacet
  facet normal -1.000000e+00 -0.000000e+00 0.000000e+00
    outer loop
      vertex   -5.551115e-16 7.429079e+01 1.012997e+01
      vertex   -5.551115e-16 6.850000e+01 5.100000e+00
      vertex   -5.551115e-16 7.407055e+01 1.022909e+01
    endloop
  endfacet
  facet normal -1.000000e+00 -0.000000e+00 0.000000e+00
    outer loop
      vertex   -5.551115e-16 7.407055e+01 1.022909e+01
      vertex   -5.551115e-16 6.850000e+01 5.100000e+00
      vertex   -5.551115e-16 7.386387e+01 1.035403e+01
    endloop
  endfacet
  facet normal -1.000000e+00 -0.000000e+00 0.000000e+00
    outer loop
      vertex   -5.551115e-16 7.386387e+01 1.035403e+01
      vertex   -5.551115e-16 6.850000e+01 5.100000e+00
      vertex   -5.551115e-16 7.367375e+01 1.050298e+01
    endloop
  endfacet
  facet normal -1.000000e+00 -0.000000e+00 0.000000e+00
    outer loop
      vertex   -5.551115e-16 7.367375e+01 1.050298e+01
      vertex   -5.551115e-16 6.850000e+01 5.100000e+00
      vertex   -5.551115e-16 7.350298e+01 1.067375e+01
    endloop
  endfacet
  facet normal -1.000000e+00 -0.000000e+00 0.000000e+00
    outer loop
      vertex   -5.551115e-16 7.350298e+01 1.067375e+01
      vertex   -5.551115e-16 6.850000e+01 5.100000e+00
      vertex   -5.551115e-16 7.335403e+01 1.086387e+01
    endloop
  endfacet
  facet normal -1.000000e+00 -0.000000e+00 0.000000e+00
    outer loop
      vertex   -5.551115e-16 7.335403e+01 1.086387e+01
      vertex   -5.551115e-16 6.850000e+01 5.100000e+00
      vertex   -5.551115e-16 6.850000e+01 1.395000e+01
    endloop
  endfacet
  facet normal -1.000000e+00 0.000000e+00 0.000000e+00
    outer loop
      vertex   -5.551115e-16 7.335403e+01 1.086387e+01
      vertex   -5.551115e-16 6.850000e+01 1.395000e+01
      vertex   -5.551115e-16 7.322909e+01 1.107055e+01
    endloop
  endfacet
  facet normal -1.000000e+00 0.000000e+00 0.000000e+00
    outer loop
      vertex   -5.551115e-16 7.322909e+01 1.107055e+01
      vertex   -5.551115e-16 6.850000e+01 1.395000e+01
      vertex   -5.551115e-16 7.312997e+01 1.129079e+01
    endloop
  endfacet
  facet normal -1.000000e+00 0.000000e+00 0.000000e+00
    outer loop
      vertex   -5.551115e-16 7.312997e+01 1.129079e+01
      vertex   -5.551115e-16 6.850000e+01 1.395000e+01
      vertex   -5.551115e-16 7.305812e+01 1.152137e+01
    endloop
  endfacet
  facet normal -1.000000e+00 0.000000e+00 0.000000e+00
    outer loop
      vertex   -5.551115e-16 7.305812e+01 1.152137e+01
      vertex   -5.551115e-16 6.850000e+01 1.395000e+01
      vertex   -5.551115e-16 7.301458e+01 1.175893e+01
    endloop
  endfacet
  facet normal -1.000000e+00 0.000000e+00 0.000000e+00
    outer loop
      vertex   -5.551115e-16 7.301458e+01 1.175893e+01
      vertex   -5.551115e-16 6.850000e+01 1.395000e+01
      vertex   -5.551115e-16 7.300000e+01 1.200000e+01
    endloop
  endfacet
  facet normal -1.000000e+00 1.233581e-16 2.846726e-16
    outer loop
      vertex   -5.551115e-16 7.300000e+01 1.200000e+01
      vertex   -5.551115e-16 6.850000e+01 1.395000e+01
      vertex   0.000000e+00 7.300000e+01 1.395000e+01
    endloop
  endfacet
endsolid
